<svg width="3200" height="800" viewBox="0 0 3200 800" fill="none" xmlns="http://www.w3.org/2000/svg">
<rect width="3200" height="800" fill="#1B1F23"/>
<g clip-path="url(#clip0_9_2)">
<rect width="3200" height="800" fill="#1B1F23"/>
<rect x="192.405" y="800" width="40.5063" height="40.5063" rx="6" transform="rotate(-180 192.405 800)" fill="#032F62"/>
<rect x="192.405" y="749.367" width="40.5063" height="40.5063" rx="6" transform="rotate(-180 192.405 749.367)" fill="#24292E"/>
<rect x="192.405" y="698.734" width="40.5063" height="40.5063" rx="6" transform="rotate(-180 192.405 698.734)" fill="#24292E"/>
<rect x="192.405" y="648.101" width="40.5063" height="40.5063" rx="6" transform="rotate(-180 192.405 648.101)" fill="#005CC5"/>
<rect x="445.57" y="192.405" width="40.5063" height="40.5063" rx="6" transform="rotate(-180 445.57 192.405)" fill="#005CC5"/>
<rect x="192.405" y="546.836" width="40.5063" height="40.5063" rx="6" transform="rotate(-180 192.405 546.836)" fill="#24292E"/>
<rect x="445.57" y="91.1392" width="40.5063" height="40.5063" rx="6" transform="rotate(-180 445.57 91.1392)" fill="#24292E"/>
<rect x="192.405" y="496.203" width="40.5063" height="40.5063" rx="6" transform="rotate(-180 192.405 496.203)" fill="#24292E"/>
<rect x="445.57" y="40.5064" width="40.5063" height="40.5063" rx="6" transform="rotate(-180 445.57 40.5064)" fill="#24292E"/>
<rect x="192.405" y="344.304" width="40.5063" height="40.5063" rx="6" transform="rotate(-180 192.405 344.304)" fill="#005CC5"/>
<rect x="192.405" y="293.671" width="40.5063" height="40.5063" rx="6" transform="rotate(-180 192.405 293.671)" fill="#24292E"/>
<rect x="749.367" y="91.1393" width="40.5063" height="40.5063" rx="6" transform="rotate(-180 749.367 91.1393)" fill="#24292E"/>
<rect x="192.405" y="243.038" width="40.5063" height="40.5063" rx="6" transform="rotate(-180 192.405 243.038)" fill="#005CC5"/>
<rect x="192.405" y="192.405" width="40.5063" height="40.5063" rx="6" transform="rotate(-180 192.405 192.405)" fill="#032F62"/>
<rect x="192.405" y="141.772" width="40.5063" height="40.5063" rx="6" transform="rotate(-180 192.405 141.772)" fill="#24292E"/>
<rect x="192.405" y="91.1392" width="40.5063" height="40.5063" rx="6" transform="rotate(-180 192.405 91.1392)" fill="#24292E"/>
<rect x="394.937" y="698.734" width="40.5063" height="40.5063" rx="6" transform="rotate(-180 394.937 698.734)" fill="#005CC5"/>
<rect x="648.101" y="141.772" width="40.5063" height="40.5063" rx="6" transform="rotate(-180 648.101 141.772)" fill="#24292E"/>
<rect x="648.101" y="40.5064" width="40.5063" height="40.5063" rx="6" transform="rotate(-180 648.101 40.5064)" fill="#032F62"/>
<rect x="394.937" y="243.038" width="40.5063" height="40.5063" rx="6" transform="rotate(-180 394.937 243.038)" fill="#24292E"/>
<rect x="951.899" y="40.5064" width="40.5063" height="40.5063" rx="6" transform="rotate(-180 951.899 40.5064)" fill="#24292E"/>
<rect x="394.937" y="192.405" width="40.5063" height="40.5063" rx="6" transform="rotate(-180 394.937 192.405)" fill="#005CC5"/>
<rect x="394.937" y="141.772" width="40.5063" height="40.5063" rx="6" transform="rotate(-180 394.937 141.772)" fill="#032F62"/>
<rect x="141.772" y="800" width="40.5063" height="40.5063" rx="6" transform="rotate(-180 141.772 800)" fill="#24292E"/>
<rect x="141.772" y="698.734" width="40.5063" height="40.5063" rx="6" transform="rotate(-180 141.772 698.734)" fill="#24292E"/>
<rect x="141.772" y="648.101" width="40.5063" height="40.5063" rx="6" transform="rotate(-180 141.772 648.101)" fill="#032F62"/>
<rect x="141.772" y="546.836" width="40.5063" height="40.5063" rx="6" transform="rotate(-180 141.772 546.836)" fill="#24292E"/>
<rect x="141.772" y="445.57" width="40.5063" height="40.5063" rx="6" transform="rotate(-180 141.772 445.57)" fill="#24292E"/>
<rect x="141.772" y="344.304" width="40.5063" height="40.5063" rx="6" transform="rotate(-180 141.772 344.304)" fill="#24292E"/>
<rect x="344.304" y="293.671" width="40.5063" height="40.5063" rx="6" transform="rotate(-180 344.304 293.671)" fill="#24292E"/>
<rect x="698.734" y="91.1393" width="40.5063" height="40.5063" rx="6" transform="rotate(-180 698.734 91.1393)" fill="#24292E"/>
<rect x="698.734" y="40.5064" width="40.5063" height="40.5063" rx="6" transform="rotate(-180 698.734 40.5064)" fill="#24292E"/>
<rect x="141.772" y="192.405" width="40.5063" height="40.5063" rx="6" transform="rotate(-180 141.772 192.405)" fill="#24292E"/>
<rect x="141.772" y="91.1392" width="40.5063" height="40.5063" rx="6" transform="rotate(-180 141.772 91.1392)" fill="#24292E"/>
<rect x="141.772" y="40.5063" width="40.5063" height="40.5063" rx="6" transform="rotate(-180 141.772 40.5063)" fill="#005CC5"/>
<rect x="344.304" y="648.101" width="40.5063" height="40.5063" rx="6" transform="rotate(-180 344.304 648.101)" fill="#032F62"/>
<rect x="344.304" y="597.468" width="40.5063" height="40.5063" rx="6" transform="rotate(-180 344.304 597.468)" fill="#24292E"/>
<rect x="597.468" y="141.772" width="40.5063" height="40.5063" rx="6" transform="rotate(-180 597.468 141.772)" fill="#24292E"/>
<rect x="597.468" y="40.5064" width="40.5063" height="40.5063" rx="6" transform="rotate(-180 597.468 40.5064)" fill="#005CC5"/>
<rect x="901.266" y="91.1393" width="40.5063" height="40.5063" rx="6" transform="rotate(-180 901.266 91.1393)" fill="#24292E"/>
<rect x="344.304" y="243.038" width="40.5063" height="40.5063" rx="6" transform="rotate(-180 344.304 243.038)" fill="#032F62"/>
<rect x="344.304" y="192.405" width="40.5063" height="40.5063" rx="6" transform="rotate(-180 344.304 192.405)" fill="#24292E"/>
<rect x="344.304" y="91.1392" width="40.5063" height="40.5063" rx="6" transform="rotate(-180 344.304 91.1392)" fill="#24292E"/>
<rect x="344.304" y="40.5064" width="40.5063" height="40.5063" rx="6" transform="rotate(-180 344.304 40.5064)" fill="#24292E"/>
<rect x="91.1394" y="749.367" width="40.5063" height="40.5063" rx="6" transform="rotate(-180 91.1394 749.367)" fill="#24292E"/>
<rect x="91.1394" y="648.101" width="40.5063" height="40.5063" rx="6" transform="rotate(-180 91.1394 648.101)" fill="#24292E"/>
<rect x="91.1394" y="597.468" width="40.5063" height="40.5063" rx="6" transform="rotate(-180 91.1394 597.468)" fill="#005CC5"/>
<rect x="91.1394" y="496.203" width="40.5063" height="40.5063" rx="6" transform="rotate(-180 91.1394 496.203)" fill="#032F62"/>
<rect x="91.1394" y="445.57" width="40.5063" height="40.5063" rx="6" transform="rotate(-180 91.1394 445.57)" fill="#24292E"/>
<rect x="91.1394" y="394.937" width="40.5063" height="40.5063" rx="6" transform="rotate(-180 91.1394 394.937)" fill="#24292E"/>
<rect x="91.1394" y="243.038" width="40.5063" height="40.5063" rx="6" transform="rotate(-180 91.1394 243.038)" fill="#24292E"/>
<rect x="91.1394" y="192.405" width="40.5063" height="40.5063" rx="6" transform="rotate(-180 91.1394 192.405)" fill="#24292E"/>
<rect x="91.1394" y="141.772" width="40.5063" height="40.5063" rx="6" transform="rotate(-180 91.1394 141.772)" fill="#005CC5"/>
<rect x="91.1394" y="40.5063" width="40.5063" height="40.5063" rx="6" transform="rotate(-180 91.1394 40.5063)" fill="#032F62"/>
<rect x="293.671" y="749.367" width="40.5063" height="40.5063" rx="6" transform="rotate(-180 293.671 749.367)" fill="#032F62"/>
<rect x="293.671" y="698.734" width="40.5063" height="40.5063" rx="6" transform="rotate(-180 293.671 698.734)" fill="#24292E"/>
<rect x="546.835" y="141.772" width="40.5063" height="40.5063" rx="6" transform="rotate(-180 546.835 141.772)" fill="#032F62"/>
<rect x="293.671" y="546.836" width="40.5063" height="40.5063" rx="6" transform="rotate(-180 293.671 546.836)" fill="#24292E"/>
<rect x="546.835" y="91.1392" width="40.5063" height="40.5063" rx="6" transform="rotate(-180 546.835 91.1392)" fill="#24292E"/>
<rect x="546.835" y="40.5064" width="40.5063" height="40.5063" rx="6" transform="rotate(-180 546.835 40.5064)" fill="#24292E"/>
<rect x="293.671" y="293.671" width="40.5063" height="40.5063" rx="6" transform="rotate(-180 293.671 293.671)" fill="#032F62"/>
<rect x="293.671" y="243.038" width="40.5063" height="40.5063" rx="6" transform="rotate(-180 293.671 243.038)" fill="#24292E"/>
<rect x="850.633" y="40.5064" width="40.5063" height="40.5063" rx="6" transform="rotate(-180 850.633 40.5064)" fill="#24292E"/>
<rect x="293.671" y="141.772" width="40.5063" height="40.5063" rx="6" transform="rotate(-180 293.671 141.772)" fill="#24292E"/>
<rect x="293.671" y="91.1392" width="40.5063" height="40.5063" rx="6" transform="rotate(-180 293.671 91.1392)" fill="#032F62"/>
<rect x="40.5062" y="800" width="40.5063" height="40.5063" rx="6" transform="rotate(-180 40.5062 800)" fill="#005CC5"/>
<rect x="40.5062" y="749.367" width="40.5063" height="40.5063" rx="6" transform="rotate(-180 40.5062 749.367)" fill="#032F62"/>
<rect x="40.5062" y="698.734" width="40.5063" height="40.5063" rx="6" transform="rotate(-180 40.5062 698.734)" fill="#24292E"/>
<rect x="40.5062" y="597.468" width="40.5063" height="40.5063" rx="6" transform="rotate(-180 40.5062 597.468)" fill="#005CC5"/>
<rect x="40.5062" y="546.835" width="40.5063" height="40.5063" rx="6" transform="rotate(-180 40.5062 546.835)" fill="#24292E"/>
<rect x="40.5063" y="496.203" width="40.5063" height="40.5063" rx="6" transform="rotate(-180 40.5063 496.203)" fill="#005CC5"/>
<rect x="40.5063" y="394.937" width="40.5063" height="40.5063" rx="6" transform="rotate(-180 40.5063 394.937)" fill="#24292E"/>
<rect x="40.5063" y="293.671" width="40.5063" height="40.5063" rx="6" transform="rotate(-180 40.5063 293.671)" fill="#24292E"/>
<rect x="40.5063" y="243.038" width="40.5063" height="40.5063" rx="6" transform="rotate(-180 40.5063 243.038)" fill="#032F62"/>
<rect x="40.5063" y="40.5063" width="40.5063" height="40.5063" rx="6" transform="rotate(-180 40.5063 40.5063)" fill="#24292E"/>
<rect x="243.038" y="800" width="40.5063" height="40.5063" rx="6" transform="rotate(-180 243.038 800)" fill="#24292E"/>
<rect x="243.038" y="749.367" width="40.5063" height="40.5063" rx="6" transform="rotate(-180 243.038 749.367)" fill="#005CC5"/>
<rect x="243.038" y="648.101" width="40.5063" height="40.5063" rx="6" transform="rotate(-180 243.038 648.101)" fill="#24292E"/>
<rect x="496.203" y="192.405" width="40.5063" height="40.5063" rx="6" transform="rotate(-180 496.203 192.405)" fill="#24292E"/>
<rect x="243.038" y="597.468" width="40.5063" height="40.5063" rx="6" transform="rotate(-180 243.038 597.468)" fill="#24292E"/>
<rect x="496.203" y="141.772" width="40.5063" height="40.5063" rx="6" transform="rotate(-180 496.203 141.772)" fill="#24292E"/>
<rect x="243.038" y="546.836" width="40.5063" height="40.5063" rx="6" transform="rotate(-180 243.038 546.836)" fill="#005CC5"/>
<rect x="496.203" y="91.1392" width="40.5063" height="40.5063" rx="6" transform="rotate(-180 496.203 91.1392)" fill="#005CC5"/>
<rect x="243.038" y="243.038" width="40.5063" height="40.5063" rx="6" transform="rotate(-180 243.038 243.038)" fill="#005CC5"/>
<rect x="800" y="40.5064" width="40.5063" height="40.5063" rx="6" transform="rotate(-180 800 40.5064)" fill="#005CC5"/>
<rect x="243.038" y="192.405" width="40.5063" height="40.5063" rx="6" transform="rotate(-180 243.038 192.405)" fill="#24292E"/>
<rect x="243.038" y="40.5063" width="40.5063" height="40.5063" rx="6" transform="rotate(-180 243.038 40.5063)" fill="#005CC5"/>
<path d="M949.043 360V258.182H1014.27V273.643H967.487V301.286H1009.8V316.747H967.487V360H949.043ZM1048.28 258.182V360H1030.28V258.182H1048.28ZM1100.09 361.491C1092.63 361.491 1086.17 359.851 1080.7 356.57C1075.23 353.288 1070.99 348.698 1067.98 342.798C1064.99 336.899 1063.5 330.005 1063.5 322.116C1063.5 314.228 1064.99 307.318 1067.98 301.385C1070.99 295.452 1075.23 290.845 1080.7 287.564C1086.17 284.283 1092.63 282.642 1100.09 282.642C1107.55 282.642 1114.01 284.283 1119.48 287.564C1124.95 290.845 1129.18 295.452 1132.16 301.385C1135.17 307.318 1136.68 314.228 1136.68 322.116C1136.68 330.005 1135.17 336.899 1132.16 342.798C1129.18 348.698 1124.95 353.288 1119.48 356.57C1114.01 359.851 1107.55 361.491 1100.09 361.491ZM1100.19 347.074C1104.23 347.074 1107.62 345.964 1110.33 343.743C1113.05 341.489 1115.07 338.473 1116.4 334.695C1117.76 330.916 1118.44 326.707 1118.44 322.067C1118.44 317.393 1117.76 313.168 1116.4 309.389C1115.07 305.578 1113.05 302.545 1110.33 300.291C1107.62 298.037 1104.23 296.911 1100.19 296.911C1096.05 296.911 1092.6 298.037 1089.85 300.291C1087.13 302.545 1085.09 305.578 1083.74 309.389C1082.41 313.168 1081.75 317.393 1081.75 322.067C1081.75 326.707 1082.41 330.916 1083.74 334.695C1085.09 338.473 1087.13 341.489 1089.85 343.743C1092.6 345.964 1096.05 347.074 1100.19 347.074ZM1151.96 360V283.636H1169.41V296.364H1170.2C1171.6 291.955 1173.98 288.558 1177.36 286.172C1180.78 283.752 1184.67 282.543 1189.05 282.543C1190.04 282.543 1191.15 282.592 1192.38 282.692C1193.64 282.758 1194.68 282.874 1195.51 283.04V299.595C1194.75 299.33 1193.54 299.098 1191.88 298.899C1190.26 298.667 1188.68 298.551 1187.16 298.551C1183.88 298.551 1180.93 299.264 1178.31 300.689C1175.72 302.081 1173.68 304.02 1172.19 306.506C1170.7 308.991 1169.96 311.858 1169.96 315.107V360H1151.96ZM1207.47 360V283.636H1225.46V360H1207.47ZM1216.51 272.798C1213.66 272.798 1211.21 271.854 1209.16 269.964C1207.1 268.042 1206.07 265.739 1206.07 263.054C1206.07 260.336 1207.1 258.033 1209.16 256.143C1211.21 254.221 1213.66 253.26 1216.51 253.26C1219.4 253.26 1221.85 254.221 1223.87 256.143C1225.93 258.033 1226.95 260.336 1226.95 263.054C1226.95 265.739 1225.93 268.042 1223.87 269.964C1221.85 271.854 1219.4 272.798 1216.51 272.798ZM1265.94 361.541C1261.11 361.541 1256.75 360.679 1252.87 358.956C1249.02 357.199 1245.98 354.614 1243.72 351.2C1241.5 347.786 1240.39 343.577 1240.39 338.572C1240.39 334.264 1241.19 330.701 1242.78 327.884C1244.37 325.066 1246.54 322.812 1249.29 321.122C1252.04 319.432 1255.14 318.156 1258.59 317.294C1262.07 316.399 1265.66 315.753 1269.37 315.355C1273.85 314.891 1277.48 314.477 1280.26 314.112C1283.05 313.714 1285.07 313.118 1286.33 312.322C1287.62 311.494 1288.27 310.218 1288.27 308.494V308.196C1288.27 304.451 1287.16 301.551 1284.94 299.496C1282.72 297.441 1279.52 296.413 1275.34 296.413C1270.93 296.413 1267.44 297.375 1264.85 299.297C1262.3 301.219 1260.57 303.49 1259.68 306.108L1242.88 303.722C1244.2 299.081 1246.39 295.204 1249.44 292.088C1252.49 288.939 1256.22 286.586 1260.62 285.028C1265.03 283.438 1269.9 282.642 1275.24 282.642C1278.92 282.642 1282.58 283.073 1286.23 283.935C1289.87 284.796 1293.21 286.222 1296.22 288.21C1299.24 290.166 1301.66 292.834 1303.48 296.214C1305.34 299.595 1306.26 303.821 1306.26 308.892V360H1288.96V349.51H1288.37C1287.27 351.631 1285.73 353.62 1283.74 355.476C1281.79 357.299 1279.32 358.774 1276.33 359.901C1273.39 360.994 1269.92 361.541 1265.94 361.541ZM1270.62 348.317C1274.23 348.317 1277.36 347.604 1280.01 346.179C1282.67 344.721 1284.7 342.798 1286.13 340.412C1287.59 338.026 1288.32 335.424 1288.32 332.607V323.608C1287.75 324.072 1286.79 324.503 1285.43 324.901C1284.11 325.298 1282.62 325.646 1280.96 325.945C1279.3 326.243 1277.66 326.508 1276.04 326.74C1274.41 326.972 1273 327.171 1271.81 327.337C1269.13 327.701 1266.72 328.298 1264.6 329.126C1262.48 329.955 1260.81 331.115 1259.58 332.607C1258.35 334.065 1257.74 335.954 1257.74 338.274C1257.74 341.589 1258.95 344.091 1261.37 345.781C1263.79 347.472 1266.87 348.317 1270.62 348.317ZM1342.36 315.256V360H1324.36V283.636H1341.56V296.612H1342.46C1344.21 292.337 1347.01 288.939 1350.86 286.42C1354.74 283.902 1359.53 282.642 1365.23 282.642C1370.5 282.642 1375.09 283.769 1379 286.023C1382.94 288.277 1385.99 291.541 1388.15 295.817C1390.33 300.092 1391.41 305.279 1391.38 311.378V360H1373.38V314.162C1373.38 309.058 1372.05 305.064 1369.4 302.18C1366.78 299.297 1363.16 297.855 1358.52 297.855C1355.37 297.855 1352.57 298.551 1350.11 299.943C1347.69 301.302 1345.79 303.274 1344.4 305.859C1343.04 308.445 1342.36 311.577 1342.36 315.256ZM1443.31 360V348.516L1495.51 273.643H1443.01V258.182H1518.38V269.666L1466.22 344.538H1518.68V360H1443.31ZM1557.7 361.541C1552.86 361.541 1548.5 360.679 1544.63 358.956C1540.78 357.199 1537.73 354.614 1535.48 351.2C1533.26 347.786 1532.15 343.577 1532.15 338.572C1532.15 334.264 1532.94 330.701 1534.53 327.884C1536.13 325.066 1538.3 322.812 1541.05 321.122C1543.8 319.432 1546.9 318.156 1550.34 317.294C1553.82 316.399 1557.42 315.753 1561.13 315.355C1565.61 314.891 1569.24 314.477 1572.02 314.112C1574.8 313.714 1576.83 313.118 1578.09 312.322C1579.38 311.494 1580.02 310.218 1580.02 308.494V308.196C1580.02 304.451 1578.91 301.551 1576.69 299.496C1574.47 297.441 1571.27 296.413 1567.1 296.413C1562.69 296.413 1559.19 297.375 1556.61 299.297C1554.06 301.219 1552.33 303.49 1551.44 306.108L1534.63 303.722C1535.96 299.081 1538.15 295.204 1541.2 292.088C1544.25 288.939 1547.97 286.586 1552.38 285.028C1556.79 283.438 1561.66 282.642 1567 282.642C1570.68 282.642 1574.34 283.073 1577.99 283.935C1581.63 284.796 1584.96 286.222 1587.98 288.21C1591 290.166 1593.41 292.834 1595.24 296.214C1597.09 299.595 1598.02 303.821 1598.02 308.892V360H1580.72V349.51H1580.12C1579.03 351.631 1577.49 353.62 1575.5 355.476C1573.54 357.299 1571.08 358.774 1568.09 359.901C1565.14 360.994 1561.68 361.541 1557.7 361.541ZM1562.38 348.317C1565.99 348.317 1569.12 347.604 1571.77 346.179C1574.42 344.721 1576.46 342.798 1577.89 340.412C1579.35 338.026 1580.07 335.424 1580.07 332.607V323.608C1579.51 324.072 1578.55 324.503 1577.19 324.901C1575.86 325.298 1574.37 325.646 1572.72 325.945C1571.06 326.243 1569.42 326.508 1567.79 326.74C1566.17 326.972 1564.76 327.171 1563.57 327.337C1560.88 327.701 1558.48 328.298 1556.36 329.126C1554.24 329.955 1552.56 331.115 1551.34 332.607C1550.11 334.065 1549.5 335.954 1549.5 338.274C1549.5 341.589 1550.71 344.091 1553.13 345.781C1555.55 347.472 1558.63 348.317 1562.38 348.317ZM1649.43 361.491C1641.8 361.491 1635.26 359.818 1629.79 356.47C1624.35 353.123 1620.16 348.499 1617.21 342.599C1614.3 336.667 1612.84 329.839 1612.84 322.116C1612.84 314.361 1614.33 307.517 1617.31 301.584C1620.29 295.618 1624.5 290.978 1629.94 287.663C1635.41 284.316 1641.87 282.642 1649.33 282.642C1655.53 282.642 1661.01 283.786 1665.78 286.072C1670.59 288.326 1674.42 291.525 1677.27 295.668C1680.12 299.777 1681.74 304.583 1682.14 310.085H1664.94C1664.24 306.406 1662.59 303.34 1659.97 300.888C1657.38 298.402 1653.92 297.159 1649.58 297.159C1645.9 297.159 1642.67 298.153 1639.88 300.142C1637.1 302.098 1634.93 304.915 1633.37 308.594C1631.85 312.273 1631.08 316.681 1631.08 321.818C1631.08 327.022 1631.85 331.496 1633.37 335.241C1634.89 338.954 1637.03 341.821 1639.78 343.842C1642.57 345.831 1645.83 346.825 1649.58 346.825C1652.23 346.825 1654.6 346.328 1656.69 345.334C1658.81 344.306 1660.58 342.831 1662.01 340.909C1663.43 338.987 1664.41 336.65 1664.94 333.899H1682.14C1681.71 339.302 1680.12 344.091 1677.37 348.267C1674.62 352.41 1670.87 355.658 1666.13 358.011C1661.39 360.331 1655.82 361.491 1649.43 361.491ZM1714.92 315.256V360H1696.92V258.182H1714.52V296.612H1715.41C1717.2 292.304 1719.97 288.906 1723.72 286.42C1727.49 283.902 1732.3 282.642 1738.13 282.642C1743.44 282.642 1748.06 283.752 1752 285.973C1755.95 288.194 1759 291.442 1761.15 295.717C1763.34 299.993 1764.43 305.213 1764.43 311.378V360H1746.44V314.162C1746.44 309.025 1745.11 305.031 1742.46 302.18C1739.84 299.297 1736.16 297.855 1731.42 297.855C1728.24 297.855 1725.39 298.551 1722.87 299.943C1720.38 301.302 1718.43 303.274 1717 305.859C1715.61 308.445 1714.92 311.577 1714.92 315.256ZM1843.13 303.821L1826.73 305.611C1826.26 303.954 1825.45 302.396 1824.29 300.938C1823.16 299.479 1821.64 298.303 1819.72 297.408C1817.79 296.513 1815.44 296.065 1812.66 296.065C1808.91 296.065 1805.76 296.877 1803.21 298.501C1800.69 300.125 1799.45 302.23 1799.48 304.815C1799.45 307.036 1800.26 308.842 1801.92 310.234C1803.61 311.626 1806.39 312.77 1810.27 313.665L1823.3 316.449C1830.52 318.007 1835.89 320.476 1839.4 323.857C1842.95 327.237 1844.74 331.662 1844.77 337.131C1844.74 341.937 1843.33 346.179 1840.55 349.858C1837.8 353.504 1833.97 356.354 1829.06 358.409C1824.16 360.464 1818.52 361.491 1812.16 361.491C1802.81 361.491 1795.29 359.536 1789.59 355.625C1783.89 351.681 1780.49 346.196 1779.4 339.169L1796.95 337.479C1797.74 340.926 1799.43 343.527 1802.02 345.284C1804.6 347.041 1807.97 347.919 1812.11 347.919C1816.39 347.919 1819.82 347.041 1822.4 345.284C1825.02 343.527 1826.33 341.357 1826.33 338.771C1826.33 336.584 1825.48 334.777 1823.79 333.352C1822.14 331.927 1819.55 330.833 1816.04 330.071L1803.01 327.337C1795.69 325.812 1790.27 323.243 1786.76 319.631C1783.24 315.985 1781.5 311.378 1781.54 305.81C1781.5 301.103 1782.78 297.027 1785.36 293.58C1787.98 290.099 1791.61 287.415 1796.25 285.526C1800.92 283.603 1806.31 282.642 1812.41 282.642C1821.36 282.642 1828.4 284.548 1833.54 288.359C1838.71 292.171 1841.91 297.325 1843.13 303.821Z" fill="#2188FF"/>
<path fill-rule="evenodd" clip-rule="evenodd" d="M769.765 248C708.015 248 658 298.015 658 359.765C658 409.221 689.993 450.993 734.419 465.801C740.007 466.779 742.103 463.426 742.103 460.493C742.103 457.838 741.963 449.037 741.963 439.676C713.882 444.846 706.618 432.831 704.382 426.544C703.125 423.331 697.676 413.412 692.926 410.757C689.015 408.662 683.426 403.493 692.787 403.353C701.588 403.213 707.875 411.456 709.971 414.809C720.029 431.713 736.096 426.963 742.522 424.029C743.5 416.765 746.434 411.875 749.647 409.081C724.779 406.287 698.794 396.647 698.794 353.897C698.794 341.743 703.125 331.684 710.25 323.86C709.132 321.066 705.221 309.61 711.368 294.243C711.368 294.243 720.728 291.309 742.103 305.699C751.044 303.184 760.544 301.926 770.044 301.926C779.544 301.926 789.044 303.184 797.985 305.699C819.36 291.169 828.721 294.243 828.721 294.243C834.868 309.61 830.956 321.066 829.838 323.86C836.963 331.684 841.294 341.603 841.294 353.897C841.294 396.787 815.169 406.287 790.301 409.081C794.353 412.574 797.846 419.279 797.846 429.757C797.846 444.706 797.706 456.721 797.706 460.493C797.706 463.426 799.801 466.919 805.39 465.801C849.537 450.993 881.529 409.081 881.529 359.765C881.529 298.015 831.515 248 769.765 248Z" fill="#2188FF"/>
<path d="M953.273 472.705C951.061 472.705 949.068 472.311 947.295 471.523C945.538 470.72 944.144 469.538 943.114 467.977C942.098 466.417 941.591 464.492 941.591 462.205C941.591 460.235 941.955 458.606 942.682 457.318C943.409 456.03 944.402 455 945.659 454.227C946.917 453.455 948.333 452.871 949.909 452.477C951.5 452.068 953.144 451.773 954.841 451.591C956.886 451.379 958.545 451.189 959.818 451.023C961.091 450.841 962.015 450.568 962.591 450.205C963.182 449.826 963.477 449.242 963.477 448.455V448.318C963.477 446.606 962.97 445.28 961.955 444.341C960.939 443.402 959.477 442.932 957.568 442.932C955.553 442.932 953.955 443.371 952.773 444.25C951.606 445.129 950.818 446.167 950.409 447.364L942.727 446.273C943.333 444.152 944.333 442.379 945.727 440.955C947.121 439.515 948.826 438.439 950.841 437.727C952.856 437 955.083 436.636 957.523 436.636C959.205 436.636 960.879 436.833 962.545 437.227C964.212 437.621 965.735 438.273 967.114 439.182C968.492 440.076 969.598 441.295 970.432 442.841C971.28 444.386 971.705 446.318 971.705 448.636V472H963.795V467.205H963.523C963.023 468.174 962.318 469.083 961.409 469.932C960.515 470.765 959.386 471.439 958.023 471.955C956.674 472.455 955.091 472.705 953.273 472.705ZM955.409 466.659C957.061 466.659 958.492 466.333 959.705 465.682C960.917 465.015 961.848 464.136 962.5 463.045C963.167 461.955 963.5 460.765 963.5 459.477V455.364C963.242 455.576 962.803 455.773 962.182 455.955C961.576 456.136 960.894 456.295 960.136 456.432C959.379 456.568 958.629 456.689 957.886 456.795C957.144 456.902 956.5 456.992 955.955 457.068C954.727 457.235 953.629 457.508 952.659 457.886C951.689 458.265 950.924 458.795 950.364 459.477C949.803 460.144 949.523 461.008 949.523 462.068C949.523 463.583 950.076 464.727 951.182 465.5C952.288 466.273 953.697 466.659 955.409 466.659ZM987.477 461.045L987.455 451.114H988.773L1001.32 437.091H1010.93L995.5 454.273H993.795L987.477 461.045ZM979.977 472V425.455H988.205V472H979.977ZM1001.89 472L990.523 456.114L996.068 450.318L1011.73 472H1001.89ZM1026.46 472.705C1024.25 472.705 1022.26 472.311 1020.48 471.523C1018.73 470.72 1017.33 469.538 1016.3 467.977C1015.29 466.417 1014.78 464.492 1014.78 462.205C1014.78 460.235 1015.14 458.606 1015.87 457.318C1016.6 456.03 1017.59 455 1018.85 454.227C1020.1 453.455 1021.52 452.871 1023.1 452.477C1024.69 452.068 1026.33 451.773 1028.03 451.591C1030.07 451.379 1031.73 451.189 1033.01 451.023C1034.28 450.841 1035.2 450.568 1035.78 450.205C1036.37 449.826 1036.66 449.242 1036.66 448.455V448.318C1036.66 446.606 1036.16 445.28 1035.14 444.341C1034.13 443.402 1032.66 442.932 1030.76 442.932C1028.74 442.932 1027.14 443.371 1025.96 444.25C1024.79 445.129 1024.01 446.167 1023.6 447.364L1015.91 446.273C1016.52 444.152 1017.52 442.379 1018.91 440.955C1020.31 439.515 1022.01 438.439 1024.03 437.727C1026.04 437 1028.27 436.636 1030.71 436.636C1032.39 436.636 1034.07 436.833 1035.73 437.227C1037.4 437.621 1038.92 438.273 1040.3 439.182C1041.68 440.076 1042.79 441.295 1043.62 442.841C1044.47 444.386 1044.89 446.318 1044.89 448.636V472H1036.98V467.205H1036.71C1036.21 468.174 1035.51 469.083 1034.6 469.932C1033.7 470.765 1032.57 471.439 1031.21 471.955C1029.86 472.455 1028.28 472.705 1026.46 472.705ZM1028.6 466.659C1030.25 466.659 1031.68 466.333 1032.89 465.682C1034.1 465.015 1035.04 464.136 1035.69 463.045C1036.35 461.955 1036.69 460.765 1036.69 459.477V455.364C1036.43 455.576 1035.99 455.773 1035.37 455.955C1034.76 456.136 1034.08 456.295 1033.32 456.432C1032.57 456.568 1031.82 456.689 1031.07 456.795C1030.33 456.902 1029.69 456.992 1029.14 457.068C1027.91 457.235 1026.82 457.508 1025.85 457.886C1024.88 458.265 1024.11 458.795 1023.55 459.477C1022.99 460.144 1022.71 461.008 1022.71 462.068C1022.71 463.583 1023.26 464.727 1024.37 465.5C1025.48 466.273 1026.88 466.659 1028.6 466.659ZM1069.4 472V425.455H1077.84V445.159H1099.4V425.455H1107.86V472H1099.4V452.227H1077.84V472H1069.4ZM1132.12 472.682C1128.62 472.682 1125.6 471.955 1123.05 470.5C1120.52 469.03 1118.57 466.955 1117.21 464.273C1115.85 461.576 1115.16 458.402 1115.16 454.75C1115.16 451.159 1115.85 448.008 1117.21 445.295C1118.59 442.568 1120.51 440.447 1122.98 438.932C1125.45 437.402 1128.35 436.636 1131.69 436.636C1133.84 436.636 1135.87 436.985 1137.78 437.682C1139.7 438.364 1141.4 439.424 1142.87 440.864C1144.35 442.303 1145.52 444.136 1146.37 446.364C1147.22 448.576 1147.64 451.212 1147.64 454.273V456.795H1119.03V451.25H1139.76C1139.74 449.674 1139.4 448.273 1138.73 447.045C1138.07 445.803 1137.13 444.826 1135.94 444.114C1134.76 443.402 1133.38 443.045 1131.8 443.045C1130.12 443.045 1128.64 443.455 1127.37 444.273C1126.1 445.076 1125.1 446.136 1124.39 447.455C1123.7 448.758 1123.34 450.189 1123.32 451.75V456.591C1123.32 458.621 1123.7 460.364 1124.44 461.818C1125.18 463.258 1126.22 464.364 1127.55 465.136C1128.88 465.894 1130.45 466.273 1132.23 466.273C1133.43 466.273 1134.51 466.106 1135.48 465.773C1136.45 465.424 1137.29 464.917 1138.01 464.25C1138.72 463.583 1139.26 462.758 1139.62 461.773L1147.3 462.636C1146.82 464.667 1145.89 466.439 1144.53 467.955C1143.18 469.455 1141.45 470.621 1139.35 471.455C1137.24 472.273 1134.83 472.682 1132.12 472.682ZM1154.6 472V437.091H1162.58V442.909H1162.94C1163.58 440.894 1164.67 439.341 1166.22 438.25C1167.78 437.144 1169.56 436.591 1171.56 436.591C1172.01 436.591 1172.52 436.614 1173.08 436.659C1173.66 436.689 1174.13 436.742 1174.51 436.818V444.386C1174.16 444.265 1173.61 444.159 1172.85 444.068C1172.11 443.962 1171.39 443.909 1170.69 443.909C1169.19 443.909 1167.84 444.235 1166.65 444.886C1165.47 445.523 1164.53 446.409 1163.85 447.545C1163.17 448.682 1162.83 449.992 1162.83 451.477V472H1154.6ZM1179.98 472V437.091H1187.95V442.909H1188.32C1188.95 440.894 1190.05 439.341 1191.59 438.25C1193.15 437.144 1194.93 436.591 1196.93 436.591C1197.39 436.591 1197.89 436.614 1198.45 436.659C1199.03 436.689 1199.51 436.742 1199.89 436.818V444.386C1199.54 444.265 1198.98 444.159 1198.23 444.068C1197.48 443.962 1196.77 443.909 1196.07 443.909C1194.57 443.909 1193.22 444.235 1192.02 444.886C1190.84 445.523 1189.91 446.409 1189.23 447.545C1188.55 448.682 1188.2 449.992 1188.2 451.477V472H1179.98ZM1243.97 425.455V472H1236.47L1214.53 440.295H1214.15V472H1205.72V425.455H1213.26L1235.17 457.182H1235.58V425.455H1243.97ZM1262.84 472.705C1260.62 472.705 1258.63 472.311 1256.86 471.523C1255.1 470.72 1253.71 469.538 1252.68 467.977C1251.66 466.417 1251.15 464.492 1251.15 462.205C1251.15 460.235 1251.52 458.606 1252.24 457.318C1252.97 456.03 1253.96 455 1255.22 454.227C1256.48 453.455 1257.9 452.871 1259.47 452.477C1261.06 452.068 1262.71 451.773 1264.4 451.591C1266.45 451.379 1268.11 451.189 1269.38 451.023C1270.65 450.841 1271.58 450.568 1272.15 450.205C1272.74 449.826 1273.04 449.242 1273.04 448.455V448.318C1273.04 446.606 1272.53 445.28 1271.52 444.341C1270.5 443.402 1269.04 442.932 1267.13 442.932C1265.12 442.932 1263.52 443.371 1262.34 444.25C1261.17 445.129 1260.38 446.167 1259.97 447.364L1252.29 446.273C1252.9 444.152 1253.9 442.379 1255.29 440.955C1256.68 439.515 1258.39 438.439 1260.4 437.727C1262.42 437 1264.65 436.636 1267.09 436.636C1268.77 436.636 1270.44 436.833 1272.11 437.227C1273.77 437.621 1275.3 438.273 1276.68 439.182C1278.05 440.076 1279.16 441.295 1279.99 442.841C1280.84 444.386 1281.27 446.318 1281.27 448.636V472H1273.36V467.205H1273.09C1272.59 468.174 1271.88 469.083 1270.97 469.932C1270.08 470.765 1268.95 471.439 1267.59 471.955C1266.24 472.455 1264.65 472.705 1262.84 472.705ZM1264.97 466.659C1266.62 466.659 1268.05 466.333 1269.27 465.682C1270.48 465.015 1271.41 464.136 1272.06 463.045C1272.73 461.955 1273.06 460.765 1273.06 459.477V455.364C1272.8 455.576 1272.37 455.773 1271.74 455.955C1271.14 456.136 1270.46 456.295 1269.7 456.432C1268.94 456.568 1268.19 456.689 1267.45 456.795C1266.71 456.902 1266.06 456.992 1265.52 457.068C1264.29 457.235 1263.19 457.508 1262.22 457.886C1261.25 458.265 1260.49 458.795 1259.93 459.477C1259.37 460.144 1259.09 461.008 1259.09 462.068C1259.09 463.583 1259.64 464.727 1260.74 465.5C1261.85 466.273 1263.26 466.659 1264.97 466.659ZM1289.54 472V437.091H1297.4V443.023H1297.81C1298.54 441.023 1299.74 439.462 1301.43 438.341C1303.11 437.205 1305.12 436.636 1307.45 436.636C1309.81 436.636 1311.8 437.212 1313.43 438.364C1315.06 439.5 1316.21 441.053 1316.88 443.023H1317.24C1318.02 441.083 1319.32 439.538 1321.15 438.386C1323 437.22 1325.19 436.636 1327.72 436.636C1330.93 436.636 1333.55 437.652 1335.59 439.682C1337.62 441.712 1338.63 444.674 1338.63 448.568V472H1330.38V449.841C1330.38 447.674 1329.8 446.091 1328.65 445.091C1327.5 444.076 1326.09 443.568 1324.43 443.568C1322.44 443.568 1320.89 444.189 1319.77 445.432C1318.66 446.659 1318.11 448.258 1318.11 450.227V472H1310.04V449.5C1310.04 447.697 1309.49 446.258 1308.4 445.182C1307.33 444.106 1305.92 443.568 1304.18 443.568C1302.99 443.568 1301.92 443.871 1300.95 444.477C1299.98 445.068 1299.21 445.909 1298.63 447C1298.05 448.076 1297.77 449.333 1297.77 450.773V472H1289.54ZM1362.43 472.682C1358.93 472.682 1355.91 471.955 1353.36 470.5C1350.83 469.03 1348.89 466.955 1347.52 464.273C1346.16 461.576 1345.48 458.402 1345.48 454.75C1345.48 451.159 1346.16 448.008 1347.52 445.295C1348.9 442.568 1350.83 440.447 1353.3 438.932C1355.77 437.402 1358.67 436.636 1362 436.636C1364.15 436.636 1366.18 436.985 1368.09 437.682C1370.02 438.364 1371.71 439.424 1373.18 440.864C1374.67 442.303 1375.83 444.136 1376.68 446.364C1377.53 448.576 1377.95 451.212 1377.95 454.273V456.795H1349.34V451.25H1370.07C1370.05 449.674 1369.71 448.273 1369.05 447.045C1368.38 445.803 1367.45 444.826 1366.25 444.114C1365.07 443.402 1363.69 443.045 1362.11 443.045C1360.43 443.045 1358.95 443.455 1357.68 444.273C1356.41 445.076 1355.42 446.136 1354.7 447.455C1354.01 448.758 1353.65 450.189 1353.64 451.75V456.591C1353.64 458.621 1354.01 460.364 1354.75 461.818C1355.49 463.258 1356.53 464.364 1357.86 465.136C1359.2 465.894 1360.76 466.273 1362.55 466.273C1363.74 466.273 1364.83 466.106 1365.8 465.773C1366.77 465.424 1367.61 464.917 1368.32 464.25C1369.03 463.583 1369.57 462.758 1369.93 461.773L1377.61 462.636C1377.13 464.667 1376.2 466.439 1374.84 467.955C1373.49 469.455 1371.77 470.621 1369.66 471.455C1367.55 472.273 1365.14 472.682 1362.43 472.682ZM1393.14 451.545V472H1384.91V437.091H1392.78V443.023H1393.19C1393.99 441.068 1395.27 439.515 1397.03 438.364C1398.8 437.212 1400.99 436.636 1403.6 436.636C1406.01 436.636 1408.1 437.152 1409.89 438.182C1411.7 439.212 1413.09 440.705 1414.07 442.659C1415.07 444.614 1415.57 446.985 1415.55 449.773V472H1407.32V451.045C1407.32 448.712 1406.72 446.886 1405.51 445.568C1404.31 444.25 1402.65 443.591 1400.53 443.591C1399.09 443.591 1397.81 443.909 1396.69 444.545C1395.58 445.167 1394.71 446.068 1394.07 447.25C1393.45 448.432 1393.14 449.864 1393.14 451.545ZM1432.14 425.455V472H1423.91V425.455H1432.14ZM1455.83 472.682C1452.42 472.682 1449.47 471.932 1446.97 470.432C1444.47 468.932 1442.53 466.833 1441.15 464.136C1439.78 461.439 1439.1 458.288 1439.1 454.682C1439.1 451.076 1439.78 447.917 1441.15 445.205C1442.53 442.492 1444.47 440.386 1446.97 438.886C1449.47 437.386 1452.42 436.636 1455.83 436.636C1459.24 436.636 1462.19 437.386 1464.69 438.886C1467.19 440.386 1469.13 442.492 1470.49 445.205C1471.87 447.917 1472.56 451.076 1472.56 454.682C1472.56 458.288 1471.87 461.439 1470.49 464.136C1469.13 466.833 1467.19 468.932 1464.69 470.432C1462.19 471.932 1459.24 472.682 1455.83 472.682ZM1455.88 466.091C1457.72 466.091 1459.27 465.583 1460.51 464.568C1461.75 463.538 1462.68 462.159 1463.28 460.432C1463.91 458.705 1464.22 456.78 1464.22 454.659C1464.22 452.523 1463.91 450.591 1463.28 448.864C1462.68 447.121 1461.75 445.735 1460.51 444.705C1459.27 443.674 1457.72 443.159 1455.88 443.159C1453.98 443.159 1452.41 443.674 1451.15 444.705C1449.91 445.735 1448.97 447.121 1448.35 448.864C1447.75 450.591 1447.44 452.523 1447.44 454.659C1447.44 456.78 1447.75 458.705 1448.35 460.432C1448.97 462.159 1449.91 463.538 1451.15 464.568C1452.41 465.583 1453.98 466.091 1455.88 466.091ZM1507.13 446.318L1499.63 447.136C1499.42 446.379 1499.05 445.667 1498.52 445C1498 444.333 1497.3 443.795 1496.43 443.386C1495.55 442.977 1494.47 442.773 1493.2 442.773C1491.49 442.773 1490.05 443.144 1488.88 443.886C1487.73 444.629 1487.16 445.591 1487.18 446.773C1487.16 447.788 1487.53 448.614 1488.29 449.25C1489.06 449.886 1490.34 450.409 1492.11 450.818L1498.06 452.091C1501.37 452.803 1503.82 453.932 1505.43 455.477C1507.05 457.023 1507.87 459.045 1507.88 461.545C1507.87 463.742 1507.22 465.682 1505.95 467.364C1504.69 469.03 1502.94 470.333 1500.7 471.273C1498.46 472.212 1495.88 472.682 1492.97 472.682C1488.7 472.682 1485.26 471.788 1482.65 470C1480.05 468.197 1478.49 465.689 1477.99 462.477L1486.02 461.705C1486.38 463.28 1487.15 464.47 1488.34 465.273C1489.52 466.076 1491.05 466.477 1492.95 466.477C1494.9 466.477 1496.47 466.076 1497.65 465.273C1498.85 464.47 1499.45 463.477 1499.45 462.295C1499.45 461.295 1499.06 460.47 1498.29 459.818C1497.53 459.167 1496.35 458.667 1494.74 458.318L1488.79 457.068C1485.44 456.371 1482.96 455.197 1481.36 453.545C1479.75 451.879 1478.96 449.773 1478.97 447.227C1478.96 445.076 1479.54 443.212 1480.72 441.636C1481.92 440.045 1483.58 438.818 1485.7 437.955C1487.84 437.076 1490.3 436.636 1493.09 436.636C1497.18 436.636 1500.4 437.508 1502.74 439.25C1505.11 440.992 1506.57 443.348 1507.13 446.318ZM1533.51 425.455V472H1525.07V433.659H1524.8L1513.91 440.614V432.886L1525.48 425.455H1533.51ZM1545.32 472V465.909L1561.48 450.068C1563.03 448.508 1564.32 447.121 1565.35 445.909C1566.38 444.697 1567.15 443.523 1567.66 442.386C1568.18 441.25 1568.44 440.038 1568.44 438.75C1568.44 437.28 1568.1 436.023 1567.44 434.977C1566.77 433.917 1565.85 433.098 1564.69 432.523C1563.52 431.947 1562.2 431.659 1560.71 431.659C1559.18 431.659 1557.84 431.977 1556.69 432.614C1555.54 433.235 1554.64 434.121 1554.01 435.273C1553.38 436.424 1553.07 437.795 1553.07 439.386H1545.05C1545.05 436.432 1545.73 433.864 1547.07 431.682C1548.42 429.5 1550.28 427.811 1552.64 426.614C1555.02 425.417 1557.75 424.818 1560.82 424.818C1563.95 424.818 1566.69 425.402 1569.05 426.568C1571.41 427.735 1573.25 429.333 1574.55 431.364C1575.87 433.394 1576.53 435.712 1576.53 438.318C1576.53 440.061 1576.2 441.773 1575.53 443.455C1574.86 445.136 1573.69 447 1572.01 449.045C1570.34 451.091 1568 453.568 1564.98 456.477L1556.96 464.636V464.955H1577.23V472H1545.32ZM1601.78 472.636C1598.51 472.636 1595.6 472.076 1593.05 470.955C1590.52 469.833 1588.52 468.273 1587.05 466.273C1585.58 464.273 1584.8 461.962 1584.71 459.341H1593.26C1593.33 460.598 1593.75 461.697 1594.51 462.636C1595.26 463.561 1596.27 464.28 1597.53 464.795C1598.79 465.311 1600.2 465.568 1601.76 465.568C1603.42 465.568 1604.9 465.28 1606.19 464.705C1607.48 464.114 1608.48 463.295 1609.21 462.25C1609.94 461.205 1610.29 460 1610.28 458.636C1610.29 457.227 1609.93 455.985 1609.19 454.909C1608.45 453.833 1607.37 452.992 1605.96 452.386C1604.57 451.78 1602.88 451.477 1600.91 451.477H1596.8V444.977H1600.91C1602.54 444.977 1603.95 444.697 1605.16 444.136C1606.39 443.576 1607.35 442.788 1608.05 441.773C1608.75 440.742 1609.09 439.553 1609.07 438.205C1609.09 436.886 1608.79 435.742 1608.19 434.773C1607.6 433.788 1606.76 433.023 1605.66 432.477C1604.59 431.932 1603.32 431.659 1601.87 431.659C1600.45 431.659 1599.13 431.917 1597.91 432.432C1596.7 432.947 1595.73 433.682 1594.98 434.636C1594.24 435.576 1593.85 436.697 1593.8 438H1585.69C1585.75 435.394 1586.5 433.106 1587.94 431.136C1589.39 429.152 1591.33 427.606 1593.76 426.5C1596.18 425.379 1598.9 424.818 1601.91 424.818C1605.02 424.818 1607.72 425.402 1610.01 426.568C1612.31 427.72 1614.09 429.273 1615.35 431.227C1616.6 433.182 1617.23 435.341 1617.23 437.705C1617.25 440.326 1616.48 442.523 1614.91 444.295C1613.37 446.068 1611.34 447.227 1608.82 447.773V448.136C1612.1 448.591 1614.6 449.803 1616.35 451.773C1618.1 453.727 1618.98 456.159 1618.96 459.068C1618.96 461.674 1618.22 464.008 1616.73 466.068C1615.26 468.114 1613.23 469.72 1610.64 470.886C1608.07 472.053 1605.11 472.636 1601.78 472.636Z" fill="#2188FF"/>
<path d="M663.165 680V627.636H682.801C686.824 627.636 690.199 628.335 692.926 629.733C695.67 631.131 697.741 633.091 699.139 635.614C700.554 638.119 701.261 641.043 701.261 644.384C701.261 647.741 700.545 650.656 699.114 653.128C697.699 655.582 695.611 657.483 692.849 658.83C690.088 660.159 686.696 660.824 682.673 660.824H668.688V652.949H681.395C683.747 652.949 685.673 652.625 687.173 651.977C688.673 651.312 689.781 650.349 690.497 649.088C691.23 647.81 691.597 646.241 691.597 644.384C691.597 642.526 691.23 640.94 690.497 639.628C689.764 638.298 688.648 637.293 687.148 636.611C685.648 635.912 683.713 635.562 681.344 635.562H672.651V680H663.165ZM690.216 656.273L703.179 680H692.594L679.861 656.273H690.216ZM726.152 680.767C722.317 680.767 718.993 679.923 716.18 678.236C713.368 676.548 711.186 674.187 709.635 671.153C708.101 668.119 707.334 664.574 707.334 660.517C707.334 656.46 708.101 652.906 709.635 649.855C711.186 646.804 713.368 644.435 716.18 642.747C718.993 641.06 722.317 640.216 726.152 640.216C729.987 640.216 733.311 641.06 736.124 642.747C738.936 644.435 741.109 646.804 742.643 649.855C744.195 652.906 744.97 656.46 744.97 660.517C744.97 664.574 744.195 668.119 742.643 671.153C741.109 674.187 738.936 676.548 736.124 678.236C733.311 679.923 729.987 680.767 726.152 680.767ZM726.203 673.352C728.283 673.352 730.021 672.781 731.419 671.639C732.817 670.48 733.857 668.929 734.538 666.986C735.237 665.043 735.587 662.878 735.587 660.491C735.587 658.088 735.237 655.915 734.538 653.972C733.857 652.011 732.817 650.452 731.419 649.293C730.021 648.134 728.283 647.554 726.203 647.554C724.072 647.554 722.3 648.134 720.885 649.293C719.487 650.452 718.439 652.011 717.74 653.972C717.058 655.915 716.717 658.088 716.717 660.491C716.717 662.878 717.058 665.043 717.74 666.986C718.439 668.929 719.487 670.48 720.885 671.639C722.3 672.781 724.072 673.352 726.203 673.352ZM753.235 680V627.636H762.491V647.222H762.874C763.352 646.267 764.025 645.253 764.894 644.179C765.763 643.088 766.94 642.159 768.423 641.392C769.906 640.608 771.798 640.216 774.099 640.216C777.133 640.216 779.869 640.991 782.306 642.543C784.761 644.077 786.704 646.352 788.136 649.369C789.585 652.369 790.309 656.051 790.309 660.415C790.309 664.727 789.602 668.392 788.187 671.409C786.772 674.426 784.846 676.727 782.408 678.312C779.971 679.898 777.21 680.69 774.124 680.69C771.874 680.69 770.008 680.315 768.525 679.565C767.042 678.815 765.849 677.912 764.945 676.855C764.059 675.781 763.369 674.767 762.874 673.812H762.337V680H753.235ZM762.312 660.364C762.312 662.903 762.67 665.128 763.386 667.037C764.119 668.946 765.167 670.437 766.531 671.511C767.911 672.568 769.582 673.097 771.542 673.097C773.587 673.097 775.3 672.551 776.681 671.46C778.062 670.352 779.102 668.844 779.8 666.935C780.516 665.009 780.874 662.818 780.874 660.364C780.874 657.926 780.525 655.761 779.826 653.869C779.127 651.977 778.087 650.494 776.707 649.42C775.326 648.347 773.604 647.81 771.542 647.81C769.565 647.81 767.886 648.33 766.505 649.369C765.124 650.409 764.076 651.866 763.36 653.741C762.661 655.616 762.312 657.824 762.312 660.364ZM815.308 680.767C811.473 680.767 808.149 679.923 805.337 678.236C802.524 676.548 800.342 674.187 798.791 671.153C797.257 668.119 796.49 664.574 796.49 660.517C796.49 656.46 797.257 652.906 798.791 649.855C800.342 646.804 802.524 644.435 805.337 642.747C808.149 641.06 811.473 640.216 815.308 640.216C819.143 640.216 822.467 641.06 825.28 642.747C828.092 644.435 830.266 646.804 831.8 649.855C833.351 652.906 834.126 656.46 834.126 660.517C834.126 664.574 833.351 668.119 831.8 671.153C830.266 674.187 828.092 676.548 825.28 678.236C822.467 679.923 819.143 680.767 815.308 680.767ZM815.359 673.352C817.439 673.352 819.178 672.781 820.575 671.639C821.973 670.48 823.013 668.929 823.695 666.986C824.393 665.043 824.743 662.878 824.743 660.491C824.743 658.088 824.393 655.915 823.695 653.972C823.013 652.011 821.973 650.452 820.575 649.293C819.178 648.134 817.439 647.554 815.359 647.554C813.229 647.554 811.456 648.134 810.041 649.293C808.643 650.452 807.595 652.011 806.896 653.972C806.214 655.915 805.874 658.088 805.874 660.491C805.874 662.878 806.214 665.043 806.896 666.986C807.595 668.929 808.643 670.48 810.041 671.639C811.456 672.781 813.229 673.352 815.359 673.352ZM861.593 640.727V647.886H839.016V640.727H861.593ZM844.59 631.318H853.846V668.188C853.846 669.432 854.033 670.386 854.408 671.051C854.8 671.699 855.312 672.142 855.942 672.381C856.573 672.619 857.272 672.739 858.039 672.739C858.619 672.739 859.147 672.696 859.624 672.611C860.119 672.526 860.494 672.449 860.749 672.381L862.309 679.616C861.815 679.787 861.107 679.974 860.187 680.179C859.283 680.384 858.175 680.503 856.863 680.537C854.545 680.605 852.457 680.256 850.599 679.489C848.741 678.705 847.266 677.494 846.175 675.858C845.102 674.222 844.573 672.176 844.59 669.722V631.318ZM869.334 680V640.727H878.589V680H869.334ZM873.987 635.153C872.521 635.153 871.26 634.668 870.203 633.696C869.146 632.707 868.618 631.523 868.618 630.142C868.618 628.744 869.146 627.56 870.203 626.588C871.26 625.599 872.521 625.105 873.987 625.105C875.47 625.105 876.732 625.599 877.771 626.588C878.828 627.56 879.357 628.744 879.357 630.142C879.357 631.523 878.828 632.707 877.771 633.696C876.732 634.668 875.47 635.153 873.987 635.153ZM905.238 680.767C901.317 680.767 897.951 679.906 895.138 678.185C892.343 676.463 890.187 674.085 888.67 671.051C887.17 668 886.42 664.489 886.42 660.517C886.42 656.528 887.187 653.009 888.721 649.957C890.255 646.889 892.42 644.503 895.215 642.798C898.028 641.077 901.352 640.216 905.187 640.216C908.374 640.216 911.195 640.804 913.65 641.98C916.121 643.139 918.09 644.784 919.556 646.915C921.022 649.028 921.857 651.5 922.062 654.33H913.215C912.857 652.437 912.005 650.861 910.658 649.599C909.329 648.321 907.548 647.682 905.315 647.682C903.423 647.682 901.761 648.193 900.329 649.216C898.897 650.222 897.781 651.67 896.979 653.562C896.195 655.455 895.803 657.722 895.803 660.364C895.803 663.04 896.195 665.341 896.979 667.267C897.763 669.176 898.863 670.651 900.278 671.69C901.71 672.713 903.388 673.224 905.315 673.224C906.678 673.224 907.897 672.969 908.971 672.457C910.062 671.929 910.974 671.17 911.707 670.182C912.44 669.193 912.942 667.991 913.215 666.577H922.062C921.84 669.355 921.022 671.818 919.607 673.966C918.192 676.097 916.266 677.767 913.829 678.977C911.391 680.17 908.528 680.767 905.238 680.767ZM960.702 651.108L952.264 652.028C952.026 651.176 951.608 650.375 951.011 649.625C950.432 648.875 949.648 648.27 948.659 647.81C947.67 647.349 946.46 647.119 945.028 647.119C943.102 647.119 941.483 647.537 940.17 648.372C938.875 649.207 938.236 650.29 938.253 651.619C938.236 652.761 938.653 653.69 939.506 654.406C940.375 655.122 941.807 655.71 943.801 656.17L950.5 657.602C954.216 658.403 956.977 659.673 958.784 661.412C960.608 663.151 961.528 665.426 961.545 668.239C961.528 670.71 960.804 672.892 959.372 674.784C957.957 676.659 955.989 678.125 953.466 679.182C950.943 680.239 948.045 680.767 944.773 680.767C939.966 680.767 936.097 679.761 933.165 677.75C930.233 675.722 928.486 672.901 927.923 669.287L936.949 668.418C937.358 670.19 938.227 671.528 939.557 672.432C940.886 673.335 942.616 673.787 944.747 673.787C946.946 673.787 948.71 673.335 950.04 672.432C951.386 671.528 952.06 670.412 952.06 669.082C952.06 667.957 951.625 667.028 950.756 666.295C949.903 665.562 948.574 665 946.767 664.608L940.068 663.202C936.301 662.418 933.514 661.097 931.707 659.239C929.901 657.364 929.006 654.994 929.023 652.131C929.006 649.71 929.662 647.614 930.991 645.841C932.338 644.051 934.205 642.67 936.591 641.699C938.994 640.71 941.764 640.216 944.901 640.216C949.503 640.216 953.125 641.196 955.767 643.156C958.426 645.116 960.071 647.767 960.702 651.108ZM998.338 680.793C995.849 680.793 993.608 680.349 991.614 679.463C989.636 678.56 988.068 677.23 986.909 675.474C985.767 673.719 985.196 671.554 985.196 668.98C985.196 666.764 985.605 664.932 986.423 663.483C987.241 662.034 988.358 660.875 989.773 660.006C991.188 659.136 992.781 658.48 994.554 658.037C996.344 657.577 998.193 657.244 1000.1 657.04C1002.4 656.801 1004.27 656.588 1005.7 656.401C1007.13 656.196 1008.17 655.889 1008.82 655.48C1009.49 655.054 1009.82 654.398 1009.82 653.511V653.358C1009.82 651.432 1009.25 649.94 1008.11 648.884C1006.96 647.827 1005.32 647.298 1003.17 647.298C1000.9 647.298 999.105 647.793 997.776 648.781C996.463 649.77 995.577 650.937 995.116 652.284L986.474 651.057C987.156 648.67 988.281 646.676 989.849 645.074C991.418 643.455 993.335 642.244 995.602 641.443C997.869 640.625 1000.38 640.216 1003.12 640.216C1005.01 640.216 1006.89 640.438 1008.77 640.881C1010.64 641.324 1012.36 642.057 1013.91 643.08C1015.46 644.085 1016.7 645.457 1017.64 647.196C1018.6 648.935 1019.07 651.108 1019.07 653.716V680H1010.18V674.605H1009.87C1009.31 675.696 1008.51 676.719 1007.49 677.673C1006.49 678.611 1005.22 679.369 1003.68 679.949C1002.16 680.511 1000.38 680.793 998.338 680.793ZM1000.74 673.991C1002.6 673.991 1004.21 673.625 1005.57 672.892C1006.94 672.142 1007.99 671.153 1008.72 669.926C1009.47 668.699 1009.84 667.361 1009.84 665.912V661.284C1009.55 661.523 1009.06 661.744 1008.36 661.949C1007.68 662.153 1006.91 662.332 1006.06 662.486C1005.21 662.639 1004.36 662.776 1003.53 662.895C1002.69 663.014 1001.97 663.116 1001.36 663.202C999.974 663.389 998.739 663.696 997.648 664.122C996.557 664.548 995.696 665.145 995.065 665.912C994.435 666.662 994.119 667.634 994.119 668.827C994.119 670.531 994.741 671.818 995.986 672.688C997.23 673.557 998.815 673.991 1000.74 673.991ZM1037.64 656.989V680H1028.38V640.727H1037.23V647.401H1037.69C1038.59 645.202 1040.03 643.455 1042.01 642.159C1044 640.864 1046.47 640.216 1049.4 640.216C1052.11 640.216 1054.47 640.795 1056.48 641.955C1058.51 643.114 1060.08 644.793 1061.18 646.991C1062.31 649.19 1062.86 651.858 1062.85 654.994V680H1053.59V656.426C1053.59 653.801 1052.91 651.747 1051.55 650.264C1050.2 648.781 1048.33 648.04 1045.95 648.04C1044.33 648.04 1042.89 648.398 1041.62 649.114C1040.38 649.812 1039.4 650.827 1038.68 652.156C1037.99 653.486 1037.64 655.097 1037.64 656.989ZM1086.83 680.69C1083.74 680.69 1080.98 679.898 1078.55 678.312C1076.11 676.727 1074.18 674.426 1072.77 671.409C1071.35 668.392 1070.64 664.727 1070.64 660.415C1070.64 656.051 1071.36 652.369 1072.79 649.369C1074.24 646.352 1076.19 644.077 1078.65 642.543C1081.1 640.991 1083.84 640.216 1086.86 640.216C1089.16 640.216 1091.05 640.608 1092.53 641.392C1094.01 642.159 1095.19 643.088 1096.06 644.179C1096.93 645.253 1097.6 646.267 1098.08 647.222H1098.46V627.636H1107.74V680H1098.64V673.812H1098.08C1097.6 674.767 1096.91 675.781 1096.01 676.855C1095.11 677.912 1093.91 678.815 1092.43 679.565C1090.95 680.315 1089.08 680.69 1086.83 680.69ZM1089.41 673.097C1091.37 673.097 1093.04 672.568 1094.42 671.511C1095.8 670.437 1096.85 668.946 1097.57 667.037C1098.28 665.128 1098.64 662.903 1098.64 660.364C1098.64 657.824 1098.28 655.616 1097.57 653.741C1096.87 651.866 1095.83 650.409 1094.45 649.369C1093.09 648.33 1091.41 647.81 1089.41 647.81C1087.35 647.81 1085.63 648.347 1084.25 649.42C1082.87 650.494 1081.83 651.977 1081.13 653.869C1080.43 655.761 1080.08 657.926 1080.08 660.364C1080.08 662.818 1080.43 665.009 1081.13 666.935C1081.84 668.844 1082.89 670.352 1084.27 671.46C1085.67 672.551 1087.38 673.097 1089.41 673.097ZM1152.6 680.767C1148.76 680.767 1145.44 679.923 1142.63 678.236C1139.81 676.548 1137.63 674.187 1136.08 671.153C1134.55 668.119 1133.78 664.574 1133.78 660.517C1133.78 656.46 1134.55 652.906 1136.08 649.855C1137.63 646.804 1139.81 644.435 1142.63 642.747C1145.44 641.06 1148.76 640.216 1152.6 640.216C1156.43 640.216 1159.76 641.06 1162.57 642.747C1165.38 644.435 1167.55 646.804 1169.09 649.855C1170.64 652.906 1171.42 656.46 1171.42 660.517C1171.42 664.574 1170.64 668.119 1169.09 671.153C1167.55 674.187 1165.38 676.548 1162.57 678.236C1159.76 679.923 1156.43 680.767 1152.6 680.767ZM1152.65 673.352C1154.73 673.352 1156.47 672.781 1157.86 671.639C1159.26 670.48 1160.3 668.929 1160.98 666.986C1161.68 665.043 1162.03 662.878 1162.03 660.491C1162.03 658.088 1161.68 655.915 1160.98 653.972C1160.3 652.011 1159.26 650.452 1157.86 649.293C1156.47 648.134 1154.73 647.554 1152.65 647.554C1150.52 647.554 1148.75 648.134 1147.33 649.293C1145.93 650.452 1144.88 652.011 1144.19 653.972C1143.5 655.915 1143.16 658.088 1143.16 660.491C1143.16 662.878 1143.5 665.043 1144.19 666.986C1144.88 668.929 1145.93 670.48 1147.33 671.639C1148.75 672.781 1150.52 673.352 1152.65 673.352ZM1179.27 694.727V640.727H1188.37V647.222H1188.91C1189.39 646.267 1190.06 645.253 1190.93 644.179C1191.8 643.088 1192.98 642.159 1194.46 641.392C1195.94 640.608 1197.83 640.216 1200.13 640.216C1203.17 640.216 1205.9 640.991 1208.34 642.543C1210.8 644.077 1212.74 646.352 1214.17 649.369C1215.62 652.369 1216.35 656.051 1216.35 660.415C1216.35 664.727 1215.64 668.392 1214.22 671.409C1212.81 674.426 1210.88 676.727 1208.44 678.312C1206.01 679.898 1203.25 680.69 1200.16 680.69C1197.91 680.69 1196.04 680.315 1194.56 679.565C1193.08 678.815 1191.88 677.912 1190.98 676.855C1190.1 675.781 1189.4 674.767 1188.91 673.812H1188.53V694.727H1179.27ZM1188.35 660.364C1188.35 662.903 1188.71 665.128 1189.42 667.037C1190.15 668.946 1191.2 670.437 1192.57 671.511C1193.95 672.568 1195.62 673.097 1197.58 673.097C1199.62 673.097 1201.34 672.551 1202.72 671.46C1204.1 670.352 1205.14 668.844 1205.84 666.935C1206.55 665.009 1206.91 662.818 1206.91 660.364C1206.91 657.926 1206.56 655.761 1205.86 653.869C1205.16 651.977 1204.12 650.494 1202.74 649.42C1201.36 648.347 1199.64 647.81 1197.58 647.81C1195.6 647.81 1193.92 648.33 1192.54 649.369C1191.16 650.409 1190.11 651.866 1189.4 653.741C1188.7 655.616 1188.35 657.824 1188.35 660.364ZM1241.66 680.767C1237.72 680.767 1234.32 679.949 1231.46 678.312C1228.61 676.659 1226.42 674.324 1224.88 671.307C1223.35 668.273 1222.58 664.702 1222.58 660.594C1222.58 656.554 1223.35 653.009 1224.88 649.957C1226.44 646.889 1228.6 644.503 1231.38 642.798C1234.16 641.077 1237.42 640.216 1241.17 640.216C1243.59 640.216 1245.88 640.608 1248.02 641.392C1250.19 642.159 1252.1 643.352 1253.75 644.972C1255.42 646.591 1256.73 648.653 1257.69 651.159C1258.64 653.648 1259.12 656.614 1259.12 660.057V662.895H1226.93V656.656H1250.25C1250.23 654.884 1249.85 653.307 1249.1 651.926C1248.35 650.528 1247.3 649.429 1245.95 648.628C1244.62 647.827 1243.07 647.426 1241.3 647.426C1239.41 647.426 1237.75 647.886 1236.31 648.807C1234.88 649.71 1233.77 650.903 1232.96 652.386C1232.18 653.852 1231.78 655.463 1231.76 657.219V662.665C1231.76 664.949 1232.18 666.909 1233.02 668.545C1233.85 670.165 1235.02 671.409 1236.52 672.278C1238.02 673.131 1239.77 673.557 1241.79 673.557C1243.13 673.557 1244.35 673.369 1245.44 672.994C1246.53 672.602 1247.48 672.031 1248.28 671.281C1249.08 670.531 1249.69 669.602 1250.1 668.494L1258.74 669.466C1258.19 671.75 1257.15 673.744 1255.62 675.449C1254.1 677.136 1252.16 678.449 1249.79 679.386C1247.42 680.307 1244.71 680.767 1241.66 680.767ZM1276.21 656.989V680H1266.95V640.727H1275.8V647.401H1276.26C1277.16 645.202 1278.6 643.455 1280.58 642.159C1282.57 640.864 1285.04 640.216 1287.97 640.216C1290.68 640.216 1293.04 640.795 1295.05 641.955C1297.08 643.114 1298.65 644.793 1299.75 646.991C1300.88 649.19 1301.43 651.858 1301.42 654.994V680H1292.16V656.426C1292.16 653.801 1291.48 651.747 1290.12 650.264C1288.77 648.781 1286.9 648.04 1284.52 648.04C1282.9 648.04 1281.46 648.398 1280.2 649.114C1278.95 649.812 1277.97 650.827 1277.25 652.156C1276.56 653.486 1276.21 655.097 1276.21 656.989ZM1334.63 654.381V662H1311.06V654.381H1334.63ZM1375.4 651.108L1366.97 652.028C1366.73 651.176 1366.31 650.375 1365.71 649.625C1365.13 648.875 1364.35 648.27 1363.36 647.81C1362.37 647.349 1361.16 647.119 1359.73 647.119C1357.81 647.119 1356.19 647.537 1354.87 648.372C1353.58 649.207 1352.94 650.29 1352.96 651.619C1352.94 652.761 1353.36 653.69 1354.21 654.406C1355.08 655.122 1356.51 655.71 1358.5 656.17L1365.2 657.602C1368.92 658.403 1371.68 659.673 1373.49 661.412C1375.31 663.151 1376.23 665.426 1376.25 668.239C1376.23 670.71 1375.51 672.892 1374.08 674.784C1372.66 676.659 1370.69 678.125 1368.17 679.182C1365.65 680.239 1362.75 680.767 1359.48 680.767C1354.67 680.767 1350.8 679.761 1347.87 677.75C1344.94 675.722 1343.19 672.901 1342.63 669.287L1351.65 668.418C1352.06 670.19 1352.93 671.528 1354.26 672.432C1355.59 673.335 1357.32 673.787 1359.45 673.787C1361.65 673.787 1363.41 673.335 1364.74 672.432C1366.09 671.528 1366.76 670.412 1366.76 669.082C1366.76 667.957 1366.33 667.028 1365.46 666.295C1364.61 665.562 1363.28 665 1361.47 664.608L1354.77 663.202C1351 662.418 1348.22 661.097 1346.41 659.239C1344.6 657.364 1343.71 654.994 1343.73 652.131C1343.71 649.71 1344.37 647.614 1345.69 645.841C1347.04 644.051 1348.91 642.67 1351.29 641.699C1353.7 640.71 1356.47 640.216 1359.6 640.216C1364.21 640.216 1367.83 641.196 1370.47 643.156C1373.13 645.116 1374.77 647.767 1375.4 651.108ZM1401.01 680.767C1397.18 680.767 1393.85 679.923 1391.04 678.236C1388.23 676.548 1386.05 674.187 1384.49 671.153C1382.96 668.119 1382.19 664.574 1382.19 660.517C1382.19 656.46 1382.96 652.906 1384.49 649.855C1386.05 646.804 1388.23 644.435 1391.04 642.747C1393.85 641.06 1397.18 640.216 1401.01 640.216C1404.85 640.216 1408.17 641.06 1410.98 642.747C1413.8 644.435 1415.97 646.804 1417.5 649.855C1419.05 652.906 1419.83 656.46 1419.83 660.517C1419.83 664.574 1419.05 668.119 1417.5 671.153C1415.97 674.187 1413.8 676.548 1410.98 678.236C1408.17 679.923 1404.85 680.767 1401.01 680.767ZM1401.06 673.352C1403.14 673.352 1404.88 672.781 1406.28 671.639C1407.68 670.48 1408.72 668.929 1409.4 666.986C1410.1 665.043 1410.45 662.878 1410.45 660.491C1410.45 658.088 1410.1 655.915 1409.4 653.972C1408.72 652.011 1407.68 650.452 1406.28 649.293C1404.88 648.134 1403.14 647.554 1401.06 647.554C1398.93 647.554 1397.16 648.134 1395.74 649.293C1394.35 650.452 1393.3 652.011 1392.6 653.972C1391.92 655.915 1391.58 658.088 1391.58 660.491C1391.58 662.878 1391.92 665.043 1392.6 666.986C1393.3 668.929 1394.35 670.48 1395.74 671.639C1397.16 672.781 1398.93 673.352 1401.06 673.352ZM1452.72 663.483V640.727H1461.97V680H1453V673.02H1452.59C1451.7 675.219 1450.25 677.017 1448.22 678.415C1446.21 679.812 1443.73 680.511 1440.78 680.511C1438.2 680.511 1435.93 679.94 1433.95 678.798C1431.99 677.639 1430.46 675.96 1429.35 673.761C1428.24 671.545 1427.69 668.869 1427.69 665.733V640.727H1436.94V664.301C1436.94 666.79 1437.62 668.767 1438.99 670.233C1440.35 671.699 1442.14 672.432 1444.36 672.432C1445.72 672.432 1447.04 672.099 1448.32 671.435C1449.6 670.77 1450.65 669.781 1451.46 668.469C1452.3 667.139 1452.72 665.477 1452.72 663.483ZM1471.49 680V640.727H1480.46V647.273H1480.87C1481.59 645.006 1482.82 643.259 1484.56 642.031C1486.31 640.787 1488.31 640.165 1490.56 640.165C1491.08 640.165 1491.65 640.19 1492.28 640.241C1492.92 640.276 1493.46 640.335 1493.89 640.42V648.935C1493.5 648.798 1492.87 648.679 1492.02 648.577C1491.19 648.457 1490.38 648.398 1489.59 648.398C1487.9 648.398 1486.39 648.764 1485.04 649.497C1483.71 650.213 1482.66 651.21 1481.9 652.489C1481.13 653.767 1480.75 655.241 1480.75 656.912V680H1471.49ZM1515.55 680.767C1511.63 680.767 1508.26 679.906 1505.45 678.185C1502.66 676.463 1500.5 674.085 1498.98 671.051C1497.48 668 1496.73 664.489 1496.73 660.517C1496.73 656.528 1497.5 653.009 1499.03 649.957C1500.57 646.889 1502.73 644.503 1505.53 642.798C1508.34 641.077 1511.66 640.216 1515.5 640.216C1518.69 640.216 1521.51 640.804 1523.96 641.98C1526.43 643.139 1528.4 644.784 1529.87 646.915C1531.33 649.028 1532.17 651.5 1532.37 654.33H1523.53C1523.17 652.437 1522.32 650.861 1520.97 649.599C1519.64 648.321 1517.86 647.682 1515.63 647.682C1513.74 647.682 1512.07 648.193 1510.64 649.216C1509.21 650.222 1508.09 651.67 1507.29 653.562C1506.51 655.455 1506.12 657.722 1506.12 660.364C1506.12 663.04 1506.51 665.341 1507.29 667.267C1508.08 669.176 1509.18 670.651 1510.59 671.69C1512.02 672.713 1513.7 673.224 1515.63 673.224C1516.99 673.224 1518.21 672.969 1519.28 672.457C1520.37 671.929 1521.29 671.17 1522.02 670.182C1522.75 669.193 1523.25 667.991 1523.53 666.577H1532.37C1532.15 669.355 1531.33 671.818 1529.92 673.966C1528.5 676.097 1526.58 677.767 1524.14 678.977C1521.7 680.17 1518.84 680.767 1515.55 680.767ZM1557.36 680.767C1553.42 680.767 1550.02 679.949 1547.16 678.312C1544.31 676.659 1542.12 674.324 1540.59 671.307C1539.05 668.273 1538.29 664.702 1538.29 660.594C1538.29 656.554 1539.05 653.009 1540.59 649.957C1542.14 646.889 1544.3 644.503 1547.08 642.798C1549.86 641.077 1553.12 640.216 1556.88 640.216C1559.3 640.216 1561.58 640.608 1563.73 641.392C1565.89 642.159 1567.8 643.352 1569.45 644.972C1571.13 646.591 1572.44 648.653 1573.39 651.159C1574.35 653.648 1574.82 656.614 1574.82 660.057V662.895H1542.63V656.656H1565.95C1565.93 654.884 1565.55 653.307 1564.8 651.926C1564.05 650.528 1563 649.429 1561.66 648.628C1560.33 647.827 1558.78 647.426 1557 647.426C1555.11 647.426 1553.45 647.886 1552.02 648.807C1550.59 649.71 1549.47 650.903 1548.67 652.386C1547.88 653.852 1547.48 655.463 1547.47 657.219V662.665C1547.47 664.949 1547.88 666.909 1548.72 668.545C1549.55 670.165 1550.72 671.409 1552.22 672.278C1553.72 673.131 1555.48 673.557 1557.49 673.557C1558.84 673.557 1560.05 673.369 1561.14 672.994C1562.24 672.602 1563.18 672.031 1563.98 671.281C1564.78 670.531 1565.39 669.602 1565.8 668.494L1574.44 669.466C1573.89 671.75 1572.86 673.744 1571.32 675.449C1569.8 677.136 1567.86 678.449 1565.49 679.386C1563.12 680.307 1560.41 680.767 1557.36 680.767ZM1600.92 680V627.636H1634.98V635.588H1610.41V649.804H1633.22V657.756H1610.41V672.048H1635.18V680H1600.92ZM1653.5 656.989V680H1644.25V640.727H1653.09V647.401H1653.55C1654.46 645.202 1655.9 643.455 1657.88 642.159C1659.87 640.864 1662.33 640.216 1665.26 640.216C1667.98 640.216 1670.34 640.795 1672.35 641.955C1674.38 643.114 1675.94 644.793 1677.05 646.991C1678.18 649.19 1678.73 651.858 1678.71 654.994V680H1669.46V656.426C1669.46 653.801 1668.78 651.747 1667.41 650.264C1666.07 648.781 1664.2 648.04 1661.81 648.04C1660.19 648.04 1658.75 648.398 1657.49 649.114C1656.25 649.812 1655.27 650.827 1654.55 652.156C1653.85 653.486 1653.5 655.097 1653.5 656.989ZM1707.73 640.727V647.886H1685.16V640.727H1707.73ZM1690.73 631.318H1699.99V668.188C1699.99 669.432 1700.17 670.386 1700.55 671.051C1700.94 671.699 1701.45 672.142 1702.08 672.381C1702.71 672.619 1703.41 672.739 1704.18 672.739C1704.76 672.739 1705.29 672.696 1705.76 672.611C1706.26 672.526 1706.63 672.449 1706.89 672.381L1708.45 679.616C1707.96 679.787 1707.25 679.974 1706.33 680.179C1705.42 680.384 1704.32 680.503 1703 680.537C1700.69 680.605 1698.6 680.256 1696.74 679.489C1694.88 678.705 1693.41 677.494 1692.32 675.858C1691.24 674.222 1690.71 672.176 1690.73 669.722V631.318ZM1725.57 656.989V680H1716.32V627.636H1725.37V647.401H1725.83C1726.75 645.185 1728.17 643.437 1730.1 642.159C1732.04 640.864 1734.51 640.216 1737.51 640.216C1740.24 640.216 1742.62 640.787 1744.65 641.929C1746.68 643.071 1748.24 644.741 1749.35 646.94C1750.48 649.139 1751.04 651.824 1751.04 654.994V680H1741.78V656.426C1741.78 653.784 1741.1 651.73 1739.74 650.264C1738.39 648.781 1736.5 648.04 1734.06 648.04C1732.43 648.04 1730.96 648.398 1729.66 649.114C1728.39 649.812 1727.38 650.827 1726.65 652.156C1725.93 653.486 1725.57 655.097 1725.57 656.989ZM1785.51 663.483V640.727H1794.76V680H1785.79V673.02H1785.38C1784.49 675.219 1783.03 677.017 1781.01 678.415C1778.99 679.812 1776.51 680.511 1773.57 680.511C1770.99 680.511 1768.72 679.94 1766.74 678.798C1764.78 677.639 1763.24 675.96 1762.14 673.761C1761.03 671.545 1760.47 668.869 1760.47 665.733V640.727H1769.73V664.301C1769.73 666.79 1770.41 668.767 1771.78 670.233C1773.14 671.699 1774.93 672.432 1777.14 672.432C1778.51 672.432 1779.83 672.099 1781.11 671.435C1782.39 670.77 1783.43 669.781 1784.25 668.469C1785.09 667.139 1785.51 665.477 1785.51 663.483ZM1835.32 651.108L1826.88 652.028C1826.64 651.176 1826.23 650.375 1825.63 649.625C1825.05 648.875 1824.26 648.27 1823.28 647.81C1822.29 647.349 1821.08 647.119 1819.65 647.119C1817.72 647.119 1816.1 647.537 1814.79 648.372C1813.49 649.207 1812.85 650.29 1812.87 651.619C1812.85 652.761 1813.27 653.69 1814.12 654.406C1814.99 655.122 1816.42 655.71 1818.42 656.17L1825.12 657.602C1828.83 658.403 1831.59 659.673 1833.4 661.412C1835.23 663.151 1836.15 665.426 1836.16 668.239C1836.15 670.71 1835.42 672.892 1833.99 674.784C1832.57 676.659 1830.61 678.125 1828.08 679.182C1825.56 680.239 1822.66 680.767 1819.39 680.767C1814.58 680.767 1810.71 679.761 1807.78 677.75C1804.85 675.722 1803.1 672.901 1802.54 669.287L1811.57 668.418C1811.98 670.19 1812.84 671.528 1814.17 672.432C1815.5 673.335 1817.23 673.787 1819.36 673.787C1821.56 673.787 1823.33 673.335 1824.66 672.432C1826 671.528 1826.68 670.412 1826.68 669.082C1826.68 667.957 1826.24 667.028 1825.37 666.295C1824.52 665.562 1823.19 665 1821.38 664.608L1814.69 663.202C1810.92 662.418 1808.13 661.097 1806.32 659.239C1804.52 657.364 1803.62 654.994 1803.64 652.131C1803.62 649.71 1804.28 647.614 1805.61 645.841C1806.96 644.051 1808.82 642.67 1811.21 641.699C1813.61 640.71 1816.38 640.216 1819.52 640.216C1824.12 640.216 1827.74 641.196 1830.38 643.156C1833.04 645.116 1834.69 647.767 1835.32 651.108ZM1843.79 680V640.727H1853.05V680H1843.79ZM1848.45 635.153C1846.98 635.153 1845.72 634.668 1844.66 633.696C1843.61 632.707 1843.08 631.523 1843.08 630.142C1843.08 628.744 1843.61 627.56 1844.66 626.588C1845.72 625.599 1846.98 625.105 1848.45 625.105C1849.93 625.105 1851.19 625.599 1852.23 626.588C1853.29 627.56 1853.82 628.744 1853.82 630.142C1853.82 631.523 1853.29 632.707 1852.23 633.696C1851.19 634.668 1849.93 635.153 1848.45 635.153ZM1873.87 680.793C1871.38 680.793 1869.14 680.349 1867.14 679.463C1865.17 678.56 1863.6 677.23 1862.44 675.474C1861.3 673.719 1860.73 671.554 1860.73 668.98C1860.73 666.764 1861.14 664.932 1861.95 663.483C1862.77 662.034 1863.89 660.875 1865.3 660.006C1866.72 659.136 1868.31 658.48 1870.09 658.037C1871.88 657.577 1873.72 657.244 1875.63 657.04C1877.93 656.801 1879.8 656.588 1881.23 656.401C1882.66 656.196 1883.7 655.889 1884.35 655.48C1885.02 655.054 1885.35 654.398 1885.35 653.511V653.358C1885.35 651.432 1884.78 649.94 1883.64 648.884C1882.49 647.827 1880.85 647.298 1878.7 647.298C1876.43 647.298 1874.64 647.793 1873.31 648.781C1871.99 649.77 1871.11 650.937 1870.65 652.284L1862.01 651.057C1862.69 648.67 1863.81 646.676 1865.38 645.074C1866.95 643.455 1868.87 642.244 1871.13 641.443C1873.4 640.625 1875.91 640.216 1878.65 640.216C1880.54 640.216 1882.43 640.438 1884.3 640.881C1886.18 641.324 1887.89 642.057 1889.44 643.08C1890.99 644.085 1892.24 645.457 1893.17 647.196C1894.13 648.935 1894.61 651.108 1894.61 653.716V680H1885.71V674.605H1885.4C1884.84 675.696 1884.05 676.719 1883.02 677.673C1882.02 678.611 1880.75 679.369 1879.21 679.949C1877.7 680.511 1875.91 680.793 1873.87 680.793ZM1876.27 673.991C1878.13 673.991 1879.74 673.625 1881.11 672.892C1882.47 672.142 1883.52 671.153 1884.25 669.926C1885 668.699 1885.38 667.361 1885.38 665.912V661.284C1885.09 661.523 1884.59 661.744 1883.89 661.949C1883.21 662.153 1882.44 662.332 1881.59 662.486C1880.74 662.639 1879.89 662.776 1879.06 662.895C1878.22 663.014 1877.5 663.116 1876.89 663.202C1875.51 663.389 1874.27 663.696 1873.18 664.122C1872.09 664.548 1871.23 665.145 1870.6 665.912C1869.97 666.662 1869.65 667.634 1869.65 668.827C1869.65 670.531 1870.27 671.818 1871.52 672.688C1872.76 673.557 1874.35 673.991 1876.27 673.991ZM1934.95 651.108L1926.51 652.028C1926.28 651.176 1925.86 650.375 1925.26 649.625C1924.68 648.875 1923.9 648.27 1922.91 647.81C1921.92 647.349 1920.71 647.119 1919.28 647.119C1917.35 647.119 1915.73 647.537 1914.42 648.372C1913.12 649.207 1912.49 650.29 1912.5 651.619C1912.49 652.761 1912.9 653.69 1913.76 654.406C1914.63 655.122 1916.06 655.71 1918.05 656.17L1924.75 657.602C1928.47 658.403 1931.23 659.673 1933.03 661.412C1934.86 663.151 1935.78 665.426 1935.8 668.239C1935.78 670.71 1935.05 672.892 1933.62 674.784C1932.21 676.659 1930.24 678.125 1927.72 679.182C1925.19 680.239 1922.3 680.767 1919.02 680.767C1914.22 680.767 1910.35 679.761 1907.41 677.75C1904.48 675.722 1902.74 672.901 1902.17 669.287L1911.2 668.418C1911.61 670.19 1912.48 671.528 1913.81 672.432C1915.14 673.335 1916.87 673.787 1919 673.787C1921.2 673.787 1922.96 673.335 1924.29 672.432C1925.64 671.528 1926.31 670.412 1926.31 669.082C1926.31 667.957 1925.88 667.028 1925.01 666.295C1924.15 665.562 1922.82 665 1921.02 664.608L1914.32 663.202C1910.55 662.418 1907.76 661.097 1905.96 659.239C1904.15 657.364 1903.26 654.994 1903.27 652.131C1903.26 649.71 1903.91 647.614 1905.24 645.841C1906.59 644.051 1908.45 642.67 1910.84 641.699C1913.24 640.71 1916.01 640.216 1919.15 640.216C1923.75 640.216 1927.38 641.196 1930.02 643.156C1932.68 645.116 1934.32 647.767 1934.95 651.108ZM1963.04 640.727V647.886H1940.46V640.727H1963.04ZM1946.04 631.318H1955.29V668.188C1955.29 669.432 1955.48 670.386 1955.85 671.051C1956.25 671.699 1956.76 672.142 1957.39 672.381C1958.02 672.619 1958.72 672.739 1959.48 672.739C1960.06 672.739 1960.59 672.696 1961.07 672.611C1961.56 672.526 1961.94 672.449 1962.19 672.381L1963.75 679.616C1963.26 679.787 1962.55 679.974 1961.63 680.179C1960.73 680.384 1959.62 680.503 1958.31 680.537C1955.99 680.605 1953.9 680.256 1952.04 679.489C1950.19 678.705 1948.71 677.494 1947.62 675.858C1946.55 674.222 1946.02 672.176 1946.04 669.722V631.318Z" fill="#2188FF"/>
<rect x="3007.59" width="40.5063" height="40.5063" rx="6" fill="#032F62"/>
<rect x="3007.59" y="50.6329" width="40.5063" height="40.5063" rx="6" fill="#24292E"/>
<rect x="3007.59" y="101.266" width="40.5063" height="40.5063" rx="6" fill="#24292E"/>
<rect x="3007.59" y="151.899" width="40.5063" height="40.5063" rx="6" fill="#005CC5"/>
<rect x="2754.43" y="607.595" width="40.5063" height="40.5063" rx="6" fill="#005CC5"/>
<rect x="3007.59" y="253.165" width="40.5063" height="40.5063" rx="6" fill="#24292E"/>
<rect x="2754.43" y="708.861" width="40.5063" height="40.5063" rx="6" fill="#24292E"/>
<rect x="3007.59" y="303.797" width="40.5063" height="40.5063" rx="6" fill="#24292E"/>
<rect x="2754.43" y="759.494" width="40.5063" height="40.5063" rx="6" fill="#24292E"/>
<rect x="3007.59" y="455.696" width="40.5063" height="40.5063" rx="6" fill="#005CC5"/>
<rect x="3007.59" y="506.329" width="40.5063" height="40.5063" rx="6" fill="#24292E"/>
<rect x="2450.63" y="708.861" width="40.5063" height="40.5063" rx="6" fill="#24292E"/>
<rect x="3007.59" y="556.962" width="40.5063" height="40.5063" rx="6" fill="#005CC5"/>
<rect x="3007.59" y="607.595" width="40.5063" height="40.5063" rx="6" fill="#032F62"/>
<rect x="3007.59" y="658.228" width="40.5063" height="40.5063" rx="6" fill="#24292E"/>
<rect x="3007.59" y="708.861" width="40.5063" height="40.5063" rx="6" fill="#24292E"/>
<rect x="2805.06" y="101.266" width="40.5063" height="40.5063" rx="6" fill="#005CC5"/>
<rect x="2551.9" y="658.228" width="40.5063" height="40.5063" rx="6" fill="#24292E"/>
<rect x="2551.9" y="759.494" width="40.5063" height="40.5063" rx="6" fill="#032F62"/>
<rect x="2805.06" y="556.962" width="40.5063" height="40.5063" rx="6" fill="#24292E"/>
<rect x="2248.1" y="759.494" width="40.5063" height="40.5063" rx="6" fill="#24292E"/>
<rect x="2805.06" y="607.595" width="40.5063" height="40.5063" rx="6" fill="#005CC5"/>
<rect x="2805.06" y="658.228" width="40.5063" height="40.5063" rx="6" fill="#032F62"/>
<rect x="3058.23" width="40.5063" height="40.5063" rx="6" fill="#24292E"/>
<rect x="3058.23" y="101.266" width="40.5063" height="40.5063" rx="6" fill="#24292E"/>
<rect x="3058.23" y="151.899" width="40.5063" height="40.5063" rx="6" fill="#032F62"/>
<rect x="3058.23" y="253.165" width="40.5063" height="40.5063" rx="6" fill="#24292E"/>
<rect x="3058.23" y="354.43" width="40.5063" height="40.5063" rx="6" fill="#24292E"/>
<rect x="3058.23" y="455.696" width="40.5063" height="40.5063" rx="6" fill="#24292E"/>
<rect x="2855.7" y="506.329" width="40.5063" height="40.5063" rx="6" fill="#24292E"/>
<rect x="2501.27" y="708.861" width="40.5063" height="40.5063" rx="6" fill="#24292E"/>
<rect x="2501.27" y="759.494" width="40.5063" height="40.5063" rx="6" fill="#24292E"/>
<rect x="3058.23" y="607.595" width="40.5063" height="40.5063" rx="6" fill="#24292E"/>
<rect x="3058.23" y="708.861" width="40.5063" height="40.5063" rx="6" fill="#24292E"/>
<rect x="3058.23" y="759.494" width="40.5063" height="40.5063" rx="6" fill="#005CC5"/>
<rect x="2855.7" y="151.899" width="40.5063" height="40.5063" rx="6" fill="#032F62"/>
<rect x="2855.7" y="202.532" width="40.5063" height="40.5063" rx="6" fill="#24292E"/>
<rect x="2602.53" y="658.228" width="40.5063" height="40.5063" rx="6" fill="#24292E"/>
<rect x="2602.53" y="759.494" width="40.5063" height="40.5063" rx="6" fill="#005CC5"/>
<rect x="2298.73" y="708.861" width="40.5063" height="40.5063" rx="6" fill="#24292E"/>
<rect x="2855.7" y="556.962" width="40.5063" height="40.5063" rx="6" fill="#032F62"/>
<rect x="2855.7" y="607.595" width="40.5063" height="40.5063" rx="6" fill="#24292E"/>
<rect x="2855.7" y="708.861" width="40.5063" height="40.5063" rx="6" fill="#24292E"/>
<rect x="2855.7" y="759.494" width="40.5063" height="40.5063" rx="6" fill="#24292E"/>
<rect x="3108.86" y="50.6329" width="40.5063" height="40.5063" rx="6" fill="#24292E"/>
<rect x="3108.86" y="151.899" width="40.5063" height="40.5063" rx="6" fill="#24292E"/>
<rect x="3108.86" y="202.532" width="40.5063" height="40.5063" rx="6" fill="#005CC5"/>
<rect x="3108.86" y="303.797" width="40.5063" height="40.5063" rx="6" fill="#032F62"/>
<rect x="3108.86" y="354.43" width="40.5063" height="40.5063" rx="6" fill="#24292E"/>
<rect x="3108.86" y="405.063" width="40.5063" height="40.5063" rx="6" fill="#24292E"/>
<rect x="3108.86" y="556.962" width="40.5063" height="40.5063" rx="6" fill="#24292E"/>
<rect x="3108.86" y="607.595" width="40.5063" height="40.5063" rx="6" fill="#24292E"/>
<rect x="3108.86" y="658.228" width="40.5063" height="40.5063" rx="6" fill="#005CC5"/>
<rect x="3108.86" y="759.494" width="40.5063" height="40.5063" rx="6" fill="#032F62"/>
<rect x="2906.33" y="50.6329" width="40.5063" height="40.5063" rx="6" fill="#032F62"/>
<rect x="2906.33" y="101.266" width="40.5063" height="40.5063" rx="6" fill="#24292E"/>
<rect x="2653.16" y="658.228" width="40.5063" height="40.5063" rx="6" fill="#032F62"/>
<rect x="2906.33" y="253.165" width="40.5063" height="40.5063" rx="6" fill="#24292E"/>
<rect x="2653.16" y="708.861" width="40.5063" height="40.5063" rx="6" fill="#24292E"/>
<rect x="2653.16" y="759.494" width="40.5063" height="40.5063" rx="6" fill="#24292E"/>
<rect x="2906.33" y="506.329" width="40.5063" height="40.5063" rx="6" fill="#032F62"/>
<rect x="2906.33" y="556.962" width="40.5063" height="40.5063" rx="6" fill="#24292E"/>
<rect x="2349.37" y="759.494" width="40.5063" height="40.5063" rx="6" fill="#24292E"/>
<rect x="2906.33" y="658.228" width="40.5063" height="40.5063" rx="6" fill="#24292E"/>
<rect x="2906.33" y="708.861" width="40.5063" height="40.5063" rx="6" fill="#032F62"/>
<rect x="3159.49" width="40.5063" height="40.5063" rx="6" fill="#005CC5"/>
<rect x="3159.49" y="50.6329" width="40.5063" height="40.5063" rx="6" fill="#032F62"/>
<rect x="3159.49" y="101.266" width="40.5063" height="40.5063" rx="6" fill="#24292E"/>
<rect x="3159.49" y="202.532" width="40.5063" height="40.5063" rx="6" fill="#005CC5"/>
<rect x="3159.49" y="253.165" width="40.5063" height="40.5063" rx="6" fill="#24292E"/>
<rect x="3159.49" y="303.797" width="40.5063" height="40.5063" rx="6" fill="#005CC5"/>
<rect x="3159.49" y="405.063" width="40.5063" height="40.5063" rx="6" fill="#24292E"/>
<rect x="3159.49" y="506.329" width="40.5063" height="40.5063" rx="6" fill="#24292E"/>
<rect x="3159.49" y="556.962" width="40.5063" height="40.5063" rx="6" fill="#032F62"/>
<rect x="3159.49" y="759.494" width="40.5063" height="40.5063" rx="6" fill="#24292E"/>
<rect x="2956.96" width="40.5063" height="40.5063" rx="6" fill="#24292E"/>
<rect x="2956.96" y="50.6329" width="40.5063" height="40.5063" rx="6" fill="#005CC5"/>
<rect x="2956.96" y="151.899" width="40.5063" height="40.5063" rx="6" fill="#24292E"/>
<rect x="2703.8" y="607.595" width="40.5063" height="40.5063" rx="6" fill="#24292E"/>
<rect x="2956.96" y="202.532" width="40.5063" height="40.5063" rx="6" fill="#24292E"/>
<rect x="2703.8" y="658.228" width="40.5063" height="40.5063" rx="6" fill="#24292E"/>
<rect x="2956.96" y="253.165" width="40.5063" height="40.5063" rx="6" fill="#005CC5"/>
<rect x="2703.8" y="708.861" width="40.5063" height="40.5063" rx="6" fill="#005CC5"/>
<rect x="2956.96" y="556.962" width="40.5063" height="40.5063" rx="6" fill="#005CC5"/>
<rect x="2400" y="759.494" width="40.5063" height="40.5063" rx="6" fill="#005CC5"/>
<rect x="2956.96" y="607.595" width="40.5063" height="40.5063" rx="6" fill="#24292E"/>
<rect x="2956.96" y="759.494" width="40.5063" height="40.5063" rx="6" fill="#005CC5"/>
</g>
<defs>
<clipPath id="clip0_9_2">
<rect width="3200" height="800" fill="white"/>
</clipPath>
</defs>
</svg>
