<svg width="453" height="88" viewBox="0 0 453 88" fill="none" xmlns="http://www.w3.org/2000/svg">
<g clip-path="url(#clip0_1_16)">
<rect width="453" height="88" rx="10" fill="#47907D"/>
<rect width="107" height="88" fill="#397B6D"/>
<path d="M55.088 70.4258C54.2875 71.4714 52.7125 71.4714 51.912 70.4258L29.5483 41.2158C28.5409 39.8999 29.4791 38 31.1363 38L75.8637 38C77.5209 38 78.4591 39.8999 77.4517 41.2158L55.088 70.4258Z" fill="#F7F3D6"/>
<rect x="46" y="15.5" width="15" height="34" rx="2" fill="#F7F3D6"/>
<g clip-path="url(#clip1_1_16)">
<mask id="mask0_1_16" style="mask-type:luminance" maskUnits="userSpaceOnUse" x="390" y="26" width="48" height="36">
<rect x="390.667" y="26.5" width="46.6667" height="35" fill="white"/>
</mask>
<g mask="url(#mask0_1_16)">
<path fill-rule="evenodd" clip-rule="evenodd" d="M390.667 26.5H437.333V61.5H390.667V26.5Z" fill="#F7FCFF"/>
<path fill-rule="evenodd" clip-rule="evenodd" d="M390.667 47.8889V50.8056H437.333V47.8889H390.667Z" fill="#E31D1C"/>
<path fill-rule="evenodd" clip-rule="evenodd" d="M390.667 53.2361V56.1528H437.333V53.2361H390.667Z" fill="#E31D1C"/>
<path fill-rule="evenodd" clip-rule="evenodd" d="M390.667 37.1944V40.1111H437.333V37.1944H390.667Z" fill="#E31D1C"/>
<path fill-rule="evenodd" clip-rule="evenodd" d="M390.667 58.5833V61.5H437.333V58.5833H390.667Z" fill="#E31D1C"/>
<path fill-rule="evenodd" clip-rule="evenodd" d="M390.667 42.5417V45.4583H437.333V42.5417H390.667Z" fill="#E31D1C"/>
<path fill-rule="evenodd" clip-rule="evenodd" d="M390.667 26.5V29.4167H437.333V26.5H390.667Z" fill="#E31D1C"/>
<path fill-rule="evenodd" clip-rule="evenodd" d="M390.667 31.8472V34.7639H437.333V31.8472H390.667Z" fill="#E31D1C"/>
<rect x="390.667" y="26.5" width="29.1667" height="18.9583" fill="#2E42A5"/>
<path fill-rule="evenodd" clip-rule="evenodd" d="M393.178 30.7856L392.119 31.5277L392.477 30.207L391.537 29.37H392.765L393.176 28.2922L393.659 29.37H394.706L393.884 30.207L394.202 31.5277L393.178 30.7856ZM399.011 30.7856L397.953 31.5277L398.31 30.207L397.37 29.37H398.598L399.01 28.2922L399.493 29.37H400.54L399.717 30.207L400.036 31.5277L399.011 30.7856ZM403.786 31.5277L404.845 30.7856L405.869 31.5277L405.55 30.207L406.373 29.37H405.326L404.843 28.2922L404.431 29.37H403.203L404.143 30.207L403.786 31.5277ZM410.678 30.7856L409.619 31.5277L409.977 30.207L409.037 29.37H410.265L410.676 28.2922L411.159 29.37H412.206L411.384 30.207L411.702 31.5277L410.678 30.7856ZM392.119 37.361L393.178 36.6189L394.202 37.361L393.884 36.0403L394.706 35.2034H393.659L393.176 34.1256L392.765 35.2034H391.537L392.477 36.0403L392.119 37.361ZM399.011 36.6189L397.953 37.361L398.31 36.0403L397.37 35.2034H398.598L399.01 34.1256L399.493 35.2034H400.54L399.717 36.0403L400.036 37.361L399.011 36.6189ZM403.786 37.361L404.845 36.6189L405.869 37.361L405.55 36.0403L406.373 35.2034H405.326L404.843 34.1256L404.431 35.2034H403.203L404.143 36.0403L403.786 37.361ZM410.678 36.6189L409.619 37.361L409.977 36.0403L409.037 35.2034H410.265L410.676 34.1256L411.159 35.2034H412.206L411.384 36.0403L411.702 37.361L410.678 36.6189ZM392.119 43.1944L393.178 42.4522L394.202 43.1944L393.884 41.8737L394.706 41.0367H393.659L393.176 39.9589L392.765 41.0367H391.537L392.477 41.8737L392.119 43.1944ZM399.011 42.4522L397.953 43.1944L398.31 41.8737L397.37 41.0367H398.598L399.01 39.9589L399.493 41.0367H400.54L399.717 41.8737L400.036 43.1944L399.011 42.4522ZM403.786 43.1944L404.845 42.4522L405.869 43.1944L405.55 41.8737L406.373 41.0367H405.326L404.843 39.9589L404.431 41.0367H403.203L404.143 41.8737L403.786 43.1944ZM410.678 42.4522L409.619 43.1944L409.977 41.8737L409.037 41.0367H410.265L410.676 39.9589L411.159 41.0367H412.206L411.384 41.8737L411.702 43.1944L410.678 42.4522ZM415.453 31.5277L416.511 30.7856L417.536 31.5277L417.217 30.207L418.04 29.37H416.993L416.51 28.2922L416.098 29.37H414.87L415.81 30.207L415.453 31.5277ZM416.511 36.6189L415.453 37.361L415.81 36.0403L414.87 35.2034H416.098L416.51 34.1256L416.993 35.2034H418.04L417.217 36.0403L417.536 37.361L416.511 36.6189ZM415.453 43.1944L416.511 42.4522L417.536 43.1944L417.217 41.8737L418.04 41.0367H416.993L416.51 39.9589L416.098 41.0367H414.87L415.81 41.8737L415.453 43.1944ZM396.095 33.7022L395.036 34.4443L395.393 33.1237L394.453 32.2867H395.681L396.093 31.2089L396.576 32.2867H397.623L396.8 33.1237L397.119 34.4443L396.095 33.7022ZM400.869 34.4443L401.928 33.7022L402.952 34.4443L402.634 33.1237L403.456 32.2867H402.409L401.926 31.2089L401.515 32.2867H400.287L401.227 33.1237L400.869 34.4443ZM407.761 33.7022L406.703 34.4443L407.06 33.1237L406.12 32.2867H407.348L407.76 31.2089L408.243 32.2867H409.29L408.467 33.1237L408.786 34.4443L407.761 33.7022ZM395.036 40.2777L396.095 39.5356L397.119 40.2777L396.8 38.957L397.623 38.12H396.576L396.093 37.0422L395.681 38.12H394.453L395.393 38.957L395.036 40.2777ZM401.928 39.5356L400.869 40.2777L401.227 38.957L400.287 38.12H401.515L401.926 37.0422L402.409 38.12H403.456L402.634 38.957L402.952 40.2777L401.928 39.5356ZM406.703 40.2777L407.761 39.5356L408.786 40.2777L408.467 38.957L409.29 38.12H408.243L407.76 37.0422L407.348 38.12H406.12L407.06 38.957L406.703 40.2777ZM413.595 33.7022L412.536 34.4443L412.893 33.1237L411.953 32.2867H413.181L413.593 31.2089L414.076 32.2867H415.123L414.3 33.1237L414.619 34.4443L413.595 33.7022ZM412.536 40.2777L413.595 39.5356L414.619 40.2777L414.3 38.957L415.123 38.12H414.076L413.593 37.0422L413.181 38.12H411.953L412.893 38.957L412.536 40.2777Z" fill="#F7FCFF"/>
</g>
</g>
<path d="M134.657 59.4417C132.331 59.4417 130.549 58.7792 129.313 57.4542C128.105 56.1292 127.502 54.2594 127.502 51.845V35.2383C127.502 32.8239 128.105 30.9542 129.313 29.6292C130.549 28.3042 132.331 27.6417 134.657 27.6417C136.983 27.6417 138.749 28.3042 139.957 29.6292C141.193 30.9542 141.812 32.8239 141.812 35.2383V38.5067H137.218V34.9292C137.218 33.0153 136.409 32.0583 134.789 32.0583C133.17 32.0583 132.36 33.0153 132.36 34.9292V52.1983C132.36 54.0828 133.17 55.025 134.789 55.025C136.409 55.025 137.218 54.0828 137.218 52.1983V47.4725H141.812V51.845C141.812 54.2594 141.193 56.1292 139.957 57.4542C138.749 58.7792 136.983 59.4417 134.657 59.4417ZM151.785 59.4417C149.429 59.4417 147.633 58.7792 146.397 57.4542C145.16 56.0997 144.542 54.1711 144.542 51.6683V28.0833H149.4V52.0217C149.4 53.0817 149.606 53.8472 150.018 54.3183C150.46 54.7894 151.078 55.025 151.873 55.025C152.668 55.025 153.272 54.7894 153.684 54.3183C154.126 53.8472 154.347 53.0817 154.347 52.0217V28.0833H159.028V51.6683C159.028 54.1711 158.41 56.0997 157.173 57.4542C155.937 58.7792 154.141 59.4417 151.785 59.4417ZM162.489 28.0833H169.688C172.191 28.0833 174.016 28.6722 175.164 29.85C176.313 30.9983 176.887 32.7797 176.887 35.1942V37.0933C176.887 40.3028 175.827 42.3344 173.707 43.1883V43.2767C174.885 43.63 175.709 44.3514 176.18 45.4408C176.681 46.5303 176.931 47.9878 176.931 49.8133V55.2458C176.931 56.1292 176.961 56.8506 177.019 57.41C177.078 57.94 177.226 58.47 177.461 59H172.514C172.338 58.4994 172.22 58.0283 172.161 57.5867C172.102 57.145 172.073 56.35 172.073 55.2017V49.5483C172.073 48.135 171.837 47.1486 171.366 46.5892C170.924 46.0297 170.144 45.75 169.025 45.75H167.347V59H162.489V28.0833ZM169.114 41.3333C170.085 41.3333 170.807 41.0831 171.278 40.5825C171.778 40.0819 172.029 39.2428 172.029 38.065V35.68C172.029 34.5611 171.822 33.7514 171.41 33.2508C171.027 32.7503 170.409 32.5 169.555 32.5H167.347V41.3333H169.114ZM180.302 28.0833H187.501C190.004 28.0833 191.829 28.6722 192.978 29.85C194.126 30.9983 194.7 32.7797 194.7 35.1942V37.0933C194.7 40.3028 193.64 42.3344 191.52 43.1883V43.2767C192.698 43.63 193.522 44.3514 193.994 45.4408C194.494 46.5303 194.744 47.9878 194.744 49.8133V55.2458C194.744 56.1292 194.774 56.8506 194.833 57.41C194.892 57.94 195.039 58.47 195.274 59H190.328C190.151 58.4994 190.033 58.0283 189.974 57.5867C189.915 57.145 189.886 56.35 189.886 55.2017V49.5483C189.886 48.135 189.65 47.1486 189.179 46.5892C188.738 46.0297 187.957 45.75 186.839 45.75H185.16V59H180.302V28.0833ZM186.927 41.3333C187.899 41.3333 188.62 41.0831 189.091 40.5825C189.592 40.0819 189.842 39.2428 189.842 38.065V35.68C189.842 34.5611 189.636 33.7514 189.224 33.2508C188.841 32.7503 188.222 32.5 187.369 32.5H185.16V41.3333H186.927ZM198.115 28.0833H202.974V59H198.115V28.0833ZM213.458 59.4417C211.132 59.4417 209.35 58.7792 208.114 57.4542C206.907 56.1292 206.303 54.2594 206.303 51.845V35.2383C206.303 32.8239 206.907 30.9542 208.114 29.6292C209.35 28.3042 211.132 27.6417 213.458 27.6417C215.784 27.6417 217.551 28.3042 218.758 29.6292C219.995 30.9542 220.613 32.8239 220.613 35.2383V38.5067H216.02V34.9292C216.02 33.0153 215.21 32.0583 213.59 32.0583C211.971 32.0583 211.161 33.0153 211.161 34.9292V52.1983C211.161 54.0828 211.971 55.025 213.59 55.025C215.21 55.025 216.02 54.0828 216.02 52.1983V47.4725H220.613V51.845C220.613 54.2594 219.995 56.1292 218.758 57.4542C217.551 58.7792 215.784 59.4417 213.458 59.4417ZM230.586 59.4417C228.231 59.4417 226.435 58.7792 225.198 57.4542C223.961 56.0997 223.343 54.1711 223.343 51.6683V28.0833H228.201V52.0217C228.201 53.0817 228.407 53.8472 228.82 54.3183C229.261 54.7894 229.88 55.025 230.675 55.025C231.47 55.025 232.073 54.7894 232.485 54.3183C232.927 53.8472 233.148 53.0817 233.148 52.0217V28.0833H237.83V51.6683C237.83 54.1711 237.211 56.0997 235.975 57.4542C234.738 58.7792 232.942 59.4417 230.586 59.4417ZM241.29 28.0833H246.148V54.5833H254.142V59H241.29V28.0833ZM263.539 59.4417C261.183 59.4417 259.387 58.7792 258.15 57.4542C256.914 56.0997 256.295 54.1711 256.295 51.6683V28.0833H261.154V52.0217C261.154 53.0817 261.36 53.8472 261.772 54.3183C262.214 54.7894 262.832 55.025 263.627 55.025C264.422 55.025 265.026 54.7894 265.438 54.3183C265.88 53.8472 266.1 53.0817 266.1 52.0217V28.0833H270.782V51.6683C270.782 54.1711 270.164 56.0997 268.927 57.4542C267.69 58.7792 265.894 59.4417 263.539 59.4417ZM274.242 28.0833H281.176L284.268 50.2108H284.356L287.448 28.0833H294.382V59H289.789V35.5917H289.701L286.167 59H282.104L278.571 35.5917H278.482V59H274.242V28.0833ZM303.801 28.0833H308.703L311.883 52.0658H311.971L315.151 28.0833H319.612L314.931 59H308.482L303.801 28.0833ZM321.946 28.0833H326.804V59H321.946V28.0833ZM334.241 32.5H329.162V28.0833H344.179V32.5H339.099V59H334.241V32.5ZM348.258 28.0833H354.839L359.874 59H355.015L354.132 52.8608V52.9492H348.611L347.728 59H343.223L348.258 28.0833ZM353.558 48.7533L351.394 33.4717H351.305L349.185 48.7533H353.558ZM362.231 28.0833H375.481V32.5H367.089V40.6708H373.758V45.0875H367.089V54.5833H375.481V59H362.231V28.0833Z" fill="#F7F3D6"/>
</g>
<defs>
<clipPath id="clip0_1_16">
<rect width="453" height="88" rx="10" fill="white"/>
</clipPath>
<clipPath id="clip1_1_16">
<rect x="391" y="26" width="46.6667" height="35" rx="4" fill="white"/>
</clipPath>
</defs>
</svg>
