<svg width="369" height="88" viewBox="0 0 369 88" fill="none" xmlns="http://www.w3.org/2000/svg">
<g clip-path="url(#clip0_2_107)">
<rect width="369" height="88" rx="10" fill="#47907D"/>
<rect width="107" height="88" fill="#397B6D"/>
<path d="M55.088 70.4258C54.2875 71.4714 52.7125 71.4714 51.912 70.4258L29.5483 41.2158C28.5409 39.8999 29.4791 38 31.1363 38L75.8637 38C77.5209 38 78.4591 39.8999 77.4517 41.2158L55.088 70.4258Z" fill="#F7F3D6"/>
<rect x="46" y="15.5" width="15" height="34" rx="2" fill="#F7F3D6"/>
<g clip-path="url(#clip1_2_107)">
<mask id="mask0_2_107" style="mask-type:luminance" maskUnits="userSpaceOnUse" x="302" y="26" width="48" height="36">
<rect x="302.667" y="26.5" width="46.6667" height="35" fill="white"/>
</mask>
<g mask="url(#mask0_2_107)">
<path fill-rule="evenodd" clip-rule="evenodd" d="M302.667 49.8334H349.333V61.5H302.667V49.8334Z" fill="#FFD018"/>
<path fill-rule="evenodd" clip-rule="evenodd" d="M302.667 38.1667H349.333V49.8333H302.667V38.1667Z" fill="#E31D1C"/>
<path fill-rule="evenodd" clip-rule="evenodd" d="M302.667 26.5H349.333V38.1667H302.667V26.5Z" fill="#272727"/>
</g>
</g>
<path d="M127.811 28.0833H132.669V54.5833H140.663V59H127.811V28.0833ZM142.993 28.0833H156.243V32.5H147.851V40.6708H154.521V45.0875H147.851V54.5833H156.243V59H142.993V28.0833ZM159.038 28.0833H166.37C168.872 28.0833 170.698 28.6722 171.846 29.85C172.995 30.9983 173.569 32.7797 173.569 35.1942V36.4308C173.569 38.0208 173.304 39.3164 172.774 40.3175C172.273 41.3186 171.493 42.04 170.433 42.4817V42.57C172.847 43.3944 174.055 45.5439 174.055 49.0183V51.6683C174.055 54.0533 173.422 55.8789 172.156 57.145C170.919 58.3817 169.093 59 166.679 59H159.038V28.0833ZM165.796 40.6708C166.767 40.6708 167.489 40.4206 167.96 39.92C168.46 39.4194 168.711 38.5803 168.711 37.4025V35.68C168.711 34.5611 168.504 33.7514 168.092 33.2508C167.709 32.7503 167.091 32.5 166.237 32.5H163.896V40.6708H165.796ZM166.679 54.5833C167.533 54.5833 168.166 54.3625 168.578 53.9208C168.99 53.4497 169.196 52.6547 169.196 51.5358V48.8417C169.196 47.4283 168.946 46.4567 168.446 45.9267C167.974 45.3672 167.179 45.0875 166.061 45.0875H163.896V54.5833H166.679ZM176.894 28.0833H190.144V32.5H181.753V40.6708H188.422V45.0875H181.753V54.5833H190.144V59H176.894V28.0833ZM192.939 28.0833H199.034L203.76 46.5892H203.849V28.0833H208.177V59H203.186L197.356 36.4308H197.268V59H192.939V28.0833ZM218.104 59.4417C215.748 59.4417 213.967 58.7792 212.76 57.4542C211.552 56.0997 210.949 54.1711 210.949 51.6683V49.9017H215.542V52.0217C215.542 54.0239 216.381 55.025 218.06 55.025C218.884 55.025 219.502 54.7894 219.915 54.3183C220.356 53.8178 220.577 53.0228 220.577 51.9333C220.577 50.6378 220.283 49.5042 219.694 48.5325C219.105 47.5314 218.015 46.3389 216.425 44.955C214.423 43.1883 213.025 41.5983 212.23 40.185C211.435 38.7422 211.037 37.1228 211.037 35.3267C211.037 32.8828 211.655 30.9983 212.892 29.6733C214.129 28.3189 215.925 27.6417 218.28 27.6417C220.606 27.6417 222.358 28.3189 223.536 29.6733C224.743 30.9983 225.347 32.9122 225.347 35.415V36.6958H220.754V35.1058C220.754 34.0458 220.548 33.2803 220.135 32.8092C219.723 32.3086 219.12 32.0583 218.325 32.0583C216.705 32.0583 215.895 33.0447 215.895 35.0175C215.895 36.1364 216.19 37.1817 216.779 38.1533C217.397 39.125 218.501 40.3028 220.091 41.6867C222.123 43.4533 223.521 45.0581 224.287 46.5008C225.053 47.9436 225.435 49.6367 225.435 51.58C225.435 54.1122 224.802 56.0556 223.536 57.41C222.3 58.7644 220.489 59.4417 218.104 59.4417ZM228.221 28.0833H233.079V54.5833H241.073V59H228.221V28.0833ZM247.33 28.0833H253.911L258.946 59H254.087L253.204 52.8608V52.9492H247.683L246.8 59H242.295L247.33 28.0833ZM252.63 48.7533L250.466 33.4717H250.377L248.257 48.7533H252.63ZM268.283 59.4417C265.928 59.4417 264.132 58.7792 262.895 57.4542C261.658 56.0997 261.04 54.1711 261.04 51.6683V28.0833H265.898V52.0217C265.898 53.0817 266.104 53.8472 266.517 54.3183C266.958 54.7894 267.577 55.025 268.372 55.025C269.167 55.025 269.77 54.7894 270.182 54.3183C270.624 53.8472 270.845 53.0817 270.845 52.0217V28.0833H275.527V51.6683C275.527 54.1711 274.908 56.0997 273.672 57.4542C272.435 58.7792 270.639 59.4417 268.283 59.4417ZM278.987 28.0833H291.839V32.5H283.845V41.1125H290.117V45.5292H283.845V59H278.987V28.0833Z" fill="#F7F3D6"/>
</g>
<defs>
<clipPath id="clip0_2_107">
<rect width="369" height="88" rx="10" fill="white"/>
</clipPath>
<clipPath id="clip1_2_107">
<rect x="303" y="26" width="46.6667" height="35" rx="4" fill="white"/>
</clipPath>
</defs>
</svg>
